<svg width="360" height="330" viewBox="0 0 360 330" fill="none" xmlns="http://www.w3.org/2000/svg">
<path d="M360 0H0V330H360V0Z" fill="#6895C5"/>
<path d="M50.6502 154.1L44.9502 154.3L43.3502 163H39.9502L40.6502 151.4H66.4502L66.9502 163H63.7502L62.1502 154.3L56.5502 154.1V178.4L62.1502 178.8V181.2H45.5502V178.8L50.6502 178.4V154.1Z" fill="white"/>
<path d="M71.4502 152L68.4502 151.5V149.3L75.8502 148.4H75.9502L76.9502 149.2V158.1L76.6502 161.6C77.4502 160.9 78.5502 160.2 80.0502 159.5C81.4502 158.9 82.9502 158.5 84.5502 158.5C86.2502 158.5 87.5502 158.8 88.4502 159.5C89.3502 160.1 90.0502 161.1 90.4502 162.3C90.8502 163.6 91.0502 165.3 91.0502 167.4V178.4L93.6502 178.8V181.2H83.1502V178.8L85.4502 178.4V167.4C85.4502 166 85.3502 164.9 85.1502 164.2C84.9502 163.4 84.6502 162.9 84.1502 162.5C83.6502 162.1 82.9502 161.9 81.9502 161.9C81.1502 161.9 80.2502 162.1 79.3502 162.5C78.4502 162.9 77.7502 163.3 77.0502 163.9V178.5L79.4502 178.9V181.3H69.2502V178.9L71.4502 178.6V152Z" fill="white"/>
<path d="M106.45 181.6C102.95 181.6 100.35 180.6 98.5502 178.5C96.8502 176.4 95.9502 173.6 95.9502 170C95.9502 167.6 96.3502 165.5 97.2502 163.8C98.1502 162 99.4502 160.7 101.05 159.8C102.65 158.9 104.55 158.4 106.65 158.4C109.35 158.4 111.35 159.1 112.85 160.5C114.25 161.9 115.05 163.9 115.05 166.5C115.05 168.3 114.95 169.6 114.75 170.4H101.75C101.85 172.8 102.45 174.7 103.45 176.1C104.45 177.4 105.95 178.1 107.85 178.1C108.85 178.1 109.95 177.9 111.05 177.6C112.15 177.3 113.05 176.8 113.65 176.4L114.65 178.6C113.95 179.4 112.75 180.1 111.15 180.8C109.75 181.3 108.15 181.6 106.45 181.6ZM109.65 168C109.75 167.3 109.75 166.7 109.75 166.3C109.75 162.8 108.55 161 106.15 161C104.85 161 103.85 161.5 103.15 162.6C102.45 163.6 102.05 165.5 101.95 168.1H109.65V168Z" fill="white"/>
<path d="M141.25 181.6C136.75 181.6 133.25 180.3 130.85 177.6C128.45 174.9 127.25 171.2 127.25 166.5C127.25 163.4 127.85 160.7 129.15 158.4C130.45 156.1 132.15 154.3 134.35 153C136.55 151.7 139.05 151.1 141.85 151.1C143.05 151.1 144.15 151.2 145.25 151.3C146.35 151.4 147.65 151.6 149.15 151.9C150.25 152.1 150.85 152.2 150.95 152.2L150.55 160.4H146.85L145.65 154.7C145.35 154.4 144.85 154.2 144.15 154C143.45 153.8 142.55 153.7 141.35 153.7C139.05 153.7 137.25 154.8 135.85 156.9C134.45 159 133.85 162 133.85 166C133.85 169.8 134.55 173 135.85 175.4C137.15 177.8 139.05 179 141.55 179C142.75 179 143.65 178.9 144.35 178.7C145.05 178.5 145.55 178.1 146.05 177.7L147.85 173.6L151.25 173.9L150.45 180.1C149.85 180.2 149.35 180.3 148.75 180.4C148.25 180.5 147.85 180.6 147.75 180.6C146.65 180.9 145.65 181.1 144.75 181.3C143.75 181.5 142.55 181.6 141.25 181.6Z" fill="white"/>
<path d="M156.55 152L153.55 151.5V149.3L160.95 148.4H161.05L162.15 149.2V178.5L165.05 178.8V181.2H153.75V178.8L156.55 178.4V152Z" fill="white"/>
<path d="M167.85 170.1C167.85 167.6 168.35 165.5 169.35 163.7C170.35 161.9 171.75 160.6 173.35 159.7C175.05 158.8 176.85 158.3 178.85 158.3C182.25 158.3 184.75 159.3 186.65 161.4C188.45 163.5 189.45 166.3 189.45 169.8C189.45 172.3 188.95 174.5 187.95 176.3C186.95 178.1 185.65 179.4 183.95 180.3C182.25 181.2 180.45 181.6 178.45 181.6C175.15 181.6 172.55 180.6 170.65 178.5C168.75 176.5 167.85 173.7 167.85 170.1ZM178.65 179C181.65 179 183.15 176.1 183.15 170.3C183.15 167.3 182.75 165 182.05 163.4C181.35 161.8 180.15 161 178.55 161C175.45 161 173.95 163.9 173.95 169.7C173.95 172.7 174.35 175.1 175.05 176.7C175.85 178.3 177.05 179 178.65 179Z" fill="white"/>
<path d="M211.05 181.6C210.15 181.6 209.55 181.4 209.15 181C208.75 180.6 208.55 180.1 208.55 179.3V178.2C207.85 179.1 206.85 179.9 205.55 180.6C204.25 181.3 202.95 181.6 201.65 181.6C199.05 181.6 197.25 180.9 196.15 179.6C195.05 178.3 194.55 176.1 194.55 173V161.7L192.55 161.1V158.8L199.35 158.3L200.15 158.9V173C200.15 174.9 200.35 176.3 200.85 177.1C201.35 177.9 202.25 178.3 203.55 178.3C205.15 178.3 206.55 177.7 207.95 176.5V161.8L205.25 161.2V159L212.45 158.5H212.55L213.55 159.1V178.8H215.75V181.1C215.65 181.1 215.15 181.2 214.25 181.4C213.25 181.5 212.25 181.6 211.05 181.6Z" fill="white"/>
<path d="M226.85 181.6C225.15 181.6 223.75 181.2 222.45 180.4C221.15 179.6 220.15 178.4 219.35 176.7C218.55 175 218.15 173 218.15 170.5C218.15 168.3 218.65 166.2 219.55 164.4C220.45 162.5 221.85 161.1 223.65 160C225.45 158.9 227.55 158.4 230.05 158.4C231.05 158.4 232.05 158.5 232.95 158.7V151.9L229.05 151.3V149.2L237.25 148.4H237.35L238.45 149.2V178.7H240.65V181C238.75 181.4 237.15 181.6 235.85 181.6C234.95 181.6 234.35 181.5 234.05 181.2C233.75 180.9 233.55 180.4 233.55 179.6V178.5C232.85 179.4 231.95 180.2 230.75 180.8C229.45 181.3 228.25 181.6 226.85 181.6ZM228.95 178.3C229.85 178.3 230.65 178.1 231.25 177.8C231.95 177.4 232.45 177 232.85 176.5V161.9C232.65 161.6 232.25 161.4 231.65 161.2C231.05 161 230.45 160.9 229.75 160.9C228.05 160.9 226.65 161.6 225.65 163.1C224.65 164.6 224.15 166.9 224.15 170.2C224.15 172.9 224.55 174.9 225.45 176.3C226.35 177.7 227.55 178.3 228.95 178.3Z" fill="white"/>
<path d="M258.35 161.6C257.85 161.8 257.05 162 255.95 162.2C254.75 162.4 253.85 162.6 253.15 162.7L252.75 159.9C254.15 159.6 255.65 159.1 257.25 158.3C258.85 157.5 260.15 156.7 261.05 155.9L264.25 156.3V178.3L268.85 178.7V181.1H253.65V178.7L258.45 178.3V161.6H258.35Z" fill="white"/>
<path d="M282.35 181.6C278.95 181.6 276.35 180.5 274.55 178.2C272.75 175.9 271.85 172.8 271.85 168.9C271.85 166.1 272.35 163.8 273.45 161.9C274.45 160 275.85 158.5 277.55 157.5C279.25 156.5 281.25 156 283.35 156C286.75 156 289.35 157.1 291.15 159.3C292.85 161.5 293.75 164.5 293.75 168.5C293.75 171.2 293.25 173.6 292.25 175.6C291.25 177.6 289.95 179.1 288.25 180.1C286.35 181.1 284.45 181.6 282.35 181.6ZM282.75 179.2C284.45 179.2 285.65 178.3 286.45 176.6C287.25 174.9 287.65 172.3 287.65 168.9C287.65 165.3 287.25 162.6 286.55 160.9C285.85 159.2 284.55 158.3 282.85 158.3C279.55 158.3 277.85 161.6 277.85 168.3C277.85 171.9 278.25 174.6 279.05 176.4C279.75 178.3 281.05 179.2 282.75 179.2Z" fill="white"/>
<path d="M308.65 181.6C305.25 181.6 302.65 180.5 300.85 178.2C299.05 175.9 298.15 172.8 298.15 168.9C298.15 166.1 298.65 163.8 299.75 161.9C300.75 160 302.15 158.5 303.85 157.5C305.55 156.5 307.55 156 309.65 156C313.05 156 315.65 157.1 317.45 159.3C319.15 161.5 320.05 164.5 320.05 168.5C320.05 171.2 319.55 173.6 318.55 175.6C317.55 177.6 316.25 179.1 314.55 180.1C312.65 181.1 310.75 181.6 308.65 181.6ZM309.05 179.2C310.75 179.2 311.95 178.3 312.75 176.6C313.55 174.9 313.95 172.3 313.95 168.9C313.95 165.3 313.55 162.6 312.85 160.9C312.15 159.2 310.85 158.3 309.15 158.3C305.85 158.3 304.15 161.6 304.15 168.3C304.15 171.9 304.55 174.6 305.35 176.4C306.05 178.3 307.35 179.2 309.05 179.2Z" fill="white"/>
</svg>
