<svg width="360" height="330" viewBox="0 0 360 330" fill="none" xmlns="http://www.w3.org/2000/svg">
<rect width="360" height="330" fill="#F6FAFF"/>
<g clip-path="url(#clip0)">
<path fill-rule="evenodd" clip-rule="evenodd" d="M179.851 73.5L258.661 119.019V210.056L179.851 255.575L101.041 210.056V119.019L179.851 73.5Z" fill="url(#paint0_linear)"/>
<path fill-rule="evenodd" clip-rule="evenodd" d="M179.947 82.3818L251.418 123.46V205.615L179.947 246.694L108.476 205.615V123.46L179.947 82.3818Z" stroke="white" stroke-width="3.26882"/>
<path d="M154.933 215.396H165.271L164.816 212.516H159.289L162.215 209.703C163.992 208.015 164.989 206.716 164.989 204.724C164.989 202.106 163.125 200.525 160.113 200.525C158.054 200.525 156.515 201.132 155.258 201.976L155.692 205.049C156.949 204.14 158.271 203.555 159.571 203.555C160.763 203.555 161.457 204.119 161.457 205.114C161.457 206.088 160.958 206.781 159.983 207.776L154.933 212.82V215.396ZM178.985 208.08C178.985 203.188 176.557 200.481 172.916 200.481C169.254 200.481 166.805 203.188 166.805 208.08C166.805 212.971 169.254 215.677 172.916 215.677C176.557 215.677 178.985 212.971 178.985 208.08ZM175.409 208.08C175.409 211.197 174.607 212.928 172.916 212.928C171.226 212.928 170.402 211.197 170.402 208.08C170.402 204.963 171.226 203.231 172.916 203.231C174.607 203.231 175.409 204.963 175.409 208.08Z" fill="#F0F6FF"/>
<path d="M180.649 215.396H190.988L190.532 212.516H185.006L187.932 209.702C189.709 208.015 190.706 206.715 190.706 204.724C190.706 202.106 188.842 200.525 185.829 200.525C183.77 200.525 182.232 201.132 180.975 201.976L181.408 205.049C182.665 204.14 183.987 203.555 185.287 203.555C186.48 203.555 187.173 204.119 187.173 205.114C187.173 206.088 186.675 206.78 185.699 207.776L180.649 212.82V215.396ZM204.701 208.08C204.701 203.188 202.274 200.481 198.633 200.481C194.97 200.481 192.521 203.188 192.521 208.08C192.521 212.971 194.97 215.676 198.633 215.676C202.274 215.676 204.701 212.971 204.701 208.08ZM201.125 208.08C201.125 211.197 200.323 212.928 198.633 212.928C196.942 212.928 196.119 211.197 196.119 208.08C196.119 204.963 196.942 203.231 198.633 203.231C200.323 203.231 201.125 204.963 201.125 208.08Z" fill="#F0F6FF"/>
<path d="M145.93 182.667L145.409 179.529H133.576V182.667H137.802V194.464H141.53V182.667H145.93ZM154.876 189.161C154.876 185.762 152.709 183.641 149.761 183.641C146.835 183.641 144.668 185.784 144.668 189.182C144.668 192.581 146.814 194.68 149.739 194.68C152.687 194.68 154.876 192.559 154.876 189.161ZM151.712 189.182C151.712 190.892 151.018 192.039 149.761 192.039C148.526 192.039 147.832 190.871 147.832 189.161C147.832 187.429 148.504 186.303 149.761 186.303C151.018 186.303 151.712 187.472 151.712 189.182ZM163.314 189.096C163.314 191.152 162.491 191.996 161.385 191.996C160.735 191.996 160.345 191.888 159.89 191.671V187.645C160.453 186.996 160.995 186.563 161.71 186.563C162.642 186.563 163.314 187.321 163.314 189.096ZM166.608 188.879C166.608 185.286 164.961 183.641 162.772 183.641C161.407 183.641 160.453 184.442 159.716 185.243L159.5 183.858H156.617V198.49L159.89 197.992V194.204C160.497 194.399 161.169 194.571 162.122 194.571C164.463 194.571 166.608 192.905 166.608 188.879ZM181.063 194.615L184.985 193.988L181.323 188.49C183.1 187.732 184.14 186.325 184.14 184.247C184.14 181.174 182.016 179.529 178.397 179.529H173.174V194.464H176.858V189.334H177.79L181.063 194.615ZM180.499 184.464C180.499 185.892 179.589 186.671 177.985 186.671H176.837V182.321H178.028C179.632 182.321 180.499 183.078 180.499 184.464ZM191.839 191.542C191.253 192.061 190.647 192.342 190.04 192.342C189.411 192.342 188.999 191.975 188.999 191.304C188.999 190.373 189.606 189.637 191.839 189.291V191.542ZM195.111 194.464V187.364C195.111 184.658 193.659 183.684 190.733 183.684C189 183.684 187.634 184.009 186.42 184.507L186.811 186.975C187.937 186.477 189.043 186.174 190.235 186.174C191.318 186.174 191.839 186.585 191.839 187.516V187.71C187.677 188.078 185.77 189.247 185.77 191.736C185.77 193.663 186.962 194.68 188.653 194.68C190.105 194.68 191.123 194.053 191.99 193.143L192.207 194.464H195.111ZM203.603 194.399L203.213 191.715C202.975 191.78 202.693 191.823 202.411 191.823C201.545 191.823 201.111 191.412 201.111 190.568V186.52H203.538L203.127 183.858H201.111V180.178L197.86 180.697V183.858H196.451V186.52H197.86V191.087C197.86 193.793 199.442 194.615 201.718 194.615C202.585 194.615 203.083 194.55 203.603 194.399ZM209.463 185.762C210.46 185.762 211.024 186.585 211.132 188.187H207.794C207.881 186.542 208.553 185.762 209.463 185.762ZM214.231 193.49L213.906 191.174C212.736 191.866 211.587 192.299 210.417 192.299C208.986 192.299 207.968 191.65 207.794 189.983H214.21C214.231 189.81 214.253 189.464 214.253 189.139C214.253 186.065 212.822 183.641 209.55 183.641C206.667 183.641 204.544 185.741 204.544 189.204C204.544 192.97 206.819 194.68 210.005 194.68C211.674 194.68 213.083 194.226 214.231 193.49ZM218.823 189.226C218.823 187.191 219.647 186.347 220.731 186.347C221.424 186.347 221.793 186.433 222.269 186.65V190.697C221.706 191.325 221.142 191.78 220.449 191.78C219.517 191.78 218.823 191.044 218.823 189.226ZM215.529 189.464C215.529 193.035 217.198 194.68 219.365 194.68C220.731 194.68 221.706 193.879 222.421 193.078L222.638 194.464H225.542V178.836L222.269 179.355V184.139C221.663 183.922 220.991 183.771 220.015 183.771C217.675 183.771 215.529 185.416 215.529 189.464Z" fill="white"/>
<path fill-rule="evenodd" clip-rule="evenodd" d="M167.955 162.317H121.858V164.538H167.955V162.317ZM191.747 164.538H239.33V162.317H191.747V164.538Z" fill="white"/>
<path fill-rule="evenodd" clip-rule="evenodd" d="M177.702 159.609C177.643 159.772 177.486 159.89 177.308 159.89L172.39 160.001C171.985 160.008 171.814 160.522 172.142 160.769L176.056 163.734C176.202 163.838 176.262 164.026 176.209 164.196L174.793 168.887C174.675 169.273 175.111 169.589 175.445 169.356L179.488 166.561C179.635 166.457 179.83 166.457 179.976 166.561L184.019 169.346C184.354 169.575 184.79 169.259 184.671 168.877L183.255 164.186C183.203 164.016 183.262 163.835 183.409 163.724L187.322 160.758C187.65 160.512 187.476 159.998 187.075 159.991L182.157 159.88C181.975 159.88 181.822 159.769 181.762 159.599L180.14 154.977C180.011 154.592 179.471 154.592 179.335 154.977L177.702 159.609Z" fill="white"/>
<path d="M210.752 144.903L198.96 133.311L200.358 131.936H197.562L196.63 131.02H201.29L203.155 129.187H194.765L193.833 128.271H204.087L205.532 126.851C205.811 126.576 205.951 126.255 205.951 125.888V116.908C205.951 116.541 205.811 116.175 205.532 115.946L204.087 114.525H181.715L180.271 115.946C179.991 116.221 179.851 116.541 179.851 116.908V146.965C179.851 147.377 180.364 147.561 180.643 147.286L186.889 141.146C187.168 140.871 187.308 140.55 187.308 140.184V131.02V116.358H198.494V126.438H192.155C192.016 126.438 191.922 126.484 191.829 126.576L187.308 131.02L201.803 145.27C202.083 145.545 202.409 145.682 202.782 145.682H210.379C210.845 145.682 211.031 145.178 210.752 144.903Z" fill="white"/>
<path d="M201.29 111.776H184.511L182.647 113.609H203.154L201.29 111.776Z" fill="white"/>
<path d="M198.913 109.439C198.633 109.164 198.307 109.027 197.934 109.027H187.867C187.494 109.027 187.121 109.164 186.888 109.439L185.443 110.86H200.358L198.913 109.439Z" fill="white"/>
<path d="M169.66 109.439C169.373 109.164 169.039 109.027 168.656 109.027H150.78C150.35 109.027 150.159 109.531 150.446 109.806L151.545 110.86H171.142L169.66 109.439Z" fill="white"/>
<path d="M172.097 111.776H152.501L154.413 113.609H174.009L172.097 111.776Z" fill="white"/>
<path d="M176.877 116.908C176.877 116.541 176.733 116.175 176.447 115.946L174.965 114.525H155.369L156.85 115.946C157.137 116.221 157.472 116.358 157.854 116.358H169.229V140.184C169.229 140.55 169.373 140.917 169.66 141.146L176.064 147.286C176.351 147.561 176.877 147.377 176.877 146.965V116.908Z" fill="white"/>
</g>
<defs>
<linearGradient id="paint0_linear" x1="101.041" y1="73.5" x2="101.041" y2="255.575" gradientUnits="userSpaceOnUse">
<stop stop-color="#116BF2"/>
<stop offset="1" stop-color="#1B3AB5"/>
</linearGradient>
<clipPath id="clip0">
<rect width="157.919" height="183" fill="white" transform="translate(101.041 73.5)"/>
</clipPath>
</defs>
</svg>
