<svg width="330" height="346" viewBox="0 0 330 346" fill="none" xmlns="http://www.w3.org/2000/svg">
<rect width="330" height="346" fill="white"/>
<g clip-path="url(#clip0)">
<path d="M24.4438 10.9987C24.3673 10.464 23.8319 10.0057 23.22 10.0057C22.0727 10.0057 21.6903 10.9224 21.6903 11.9154C21.6903 12.832 22.0727 13.8251 23.22 13.8251C23.9849 13.8251 24.3673 13.2904 24.5203 12.6029H25.7441C25.5911 13.9778 24.6733 14.8945 23.2965 14.8945C21.5373 14.8945 20.543 13.5959 20.543 11.9918C20.543 10.3113 21.5373 9.0127 23.2965 9.0127C24.5203 9.0127 25.5911 9.70018 25.7441 10.9987H24.4438Z" fill="#1E1E1E"/>
<path d="M26.356 9.08936H27.5033V11.2282C27.8092 10.7699 28.2681 10.5407 28.7271 10.5407C29.9509 10.5407 30.1803 11.2282 30.1803 12.2212V14.742H29.033V12.4504C29.033 11.7629 28.8035 11.4573 28.3446 11.4573C27.7327 11.4573 27.5033 11.7629 27.5033 12.6031V14.742H26.356V9.08936Z" fill="#1E1E1E"/>
<path d="M31.0216 11.9155C31.0981 10.8461 32.016 10.5405 32.9338 10.5405C33.7752 10.5405 34.693 10.6933 34.693 11.6863V13.8252C34.693 14.2071 34.7695 14.589 34.846 14.7418H33.6987C33.6222 14.589 33.6222 14.5126 33.6222 14.3599C33.2398 14.7418 32.7808 14.8946 32.2454 14.8946C31.4806 14.8946 30.8687 14.5126 30.8687 13.6724C30.8687 12.7557 31.557 12.5266 32.2454 12.4502C32.9338 12.3738 33.5457 12.3738 33.5457 11.9155C33.5457 11.4572 33.2398 11.3808 32.8573 11.3808C32.3984 11.3808 32.1689 11.5336 32.0924 11.9919H31.0216V11.9155ZM33.5457 12.7557C33.3927 12.9085 32.9338 12.9085 32.6279 12.9849C32.2454 13.0613 31.9395 13.1377 31.9395 13.596C31.9395 13.9779 32.2454 14.1307 32.6279 14.1307C33.4692 14.1307 33.5457 13.4432 33.5457 13.2141V12.7557Z" fill="#1E1E1E"/>
<path d="M35.6094 9.08936H36.7567V14.6656H35.6094V9.08936Z" fill="#1E1E1E"/>
<path d="M37.5981 9.08936H38.7454V14.6656H37.5981V9.08936Z" fill="#1E1E1E"/>
<path d="M40.5811 12.9847C40.5811 13.6721 40.9635 13.9777 41.5754 13.9777C42.0343 13.9777 42.4168 13.6721 42.4933 13.443H43.4876C43.1816 14.436 42.4933 14.8179 41.5754 14.8179C40.2751 14.8179 39.5103 13.9013 39.5103 12.6791C39.5103 11.4569 40.3516 10.5403 41.5754 10.5403C42.9522 10.5403 43.6406 11.6861 43.5641 12.9847H40.5811ZM42.3403 12.2208C42.2638 11.6861 41.9578 11.3805 41.4224 11.3805C40.734 11.3805 40.5046 11.9152 40.5046 12.2208H42.3403Z" fill="#1E1E1E"/>
<path d="M44.1751 10.6931H45.2459V11.2278C45.5519 10.7694 46.0108 10.5403 46.4697 10.5403C47.6935 10.5403 47.923 11.2278 47.923 12.2208V14.7416H46.7757V12.45C46.7757 11.7625 46.5462 11.4569 46.0873 11.4569C45.4754 11.4569 45.2459 11.7625 45.2459 12.6027V14.7416H44.0986V10.6931H44.1751Z" fill="#1E1E1E"/>
<path d="M52.7415 14.436C52.7415 15.1235 52.512 16.2693 50.5999 16.2693C49.835 16.2693 48.8406 15.8874 48.8406 14.9707H49.988C50.0644 15.3526 50.4469 15.5054 50.8293 15.5054C51.4412 15.5054 51.7472 15.0471 51.7472 14.5124V13.9777C51.5177 14.436 50.9823 14.5888 50.5234 14.5888C49.2996 14.5888 48.7642 13.6721 48.7642 12.5263C48.7642 11.4569 49.3761 10.5403 50.5234 10.5403C51.0588 10.5403 51.4412 10.6931 51.7472 11.2278V10.6931H52.818V14.436H52.7415ZM51.6707 12.6791C51.6707 11.9916 51.4412 11.4569 50.7528 11.4569C50.1409 11.4569 49.835 11.9916 49.835 12.6027C49.835 13.2138 50.0644 13.8249 50.7528 13.8249C51.3647 13.7485 51.6707 13.2138 51.6707 12.6791Z" fill="#1E1E1E"/>
<path d="M54.5767 12.9847C54.5767 13.6721 54.9591 13.9777 55.571 13.9777C56.0299 13.9777 56.4124 13.6721 56.4889 13.443H57.4832C57.1772 14.436 56.4889 14.8179 55.571 14.8179C54.2707 14.8179 53.5059 13.9013 53.5059 12.6791C53.5059 11.4569 54.3472 10.5403 55.571 10.5403C56.9478 10.5403 57.6362 11.6861 57.5597 12.9847H54.5767ZM56.3359 12.2208C56.2594 11.6861 55.9534 11.3805 55.418 11.3805C54.7297 11.3805 54.5002 11.9152 54.5002 12.2208H56.3359Z" fill="#1E1E1E"/>
<path d="M58.1714 10.6931H59.2422V11.457C59.4717 10.9222 60.0071 10.6167 60.5425 10.6167C60.619 10.6167 60.6955 10.6167 60.7719 10.6931V11.7625C60.6955 11.7625 60.5425 11.6861 60.3895 11.6861C59.5482 11.6861 59.3187 12.2972 59.3187 12.9847V14.818H58.1714V10.6931Z" fill="#1E1E1E"/>
<path d="M62.0718 13.443C62.0718 13.9013 62.4542 14.1305 62.9132 14.1305C63.2191 14.1305 63.678 13.9777 63.678 13.5958C63.678 13.2902 63.2191 13.1375 62.3777 12.9847C61.7658 12.8319 61.0775 12.6028 61.0775 11.9153C61.0775 10.8459 61.9953 10.6167 62.8367 10.6167C63.7545 10.6167 64.5194 10.9222 64.5959 11.9153H63.5251C63.5251 11.457 63.1426 11.3806 62.7602 11.3806C62.5307 11.3806 62.1483 11.457 62.1483 11.7625C62.1483 12.1444 62.7602 12.2208 63.4486 12.3736C64.1369 12.5264 64.7488 12.7555 64.7488 13.5194C64.7488 14.5888 63.831 14.9707 62.9132 14.9707C61.9953 14.9707 61.0775 14.5888 61.001 13.5194H62.0718V13.443Z" fill="#1E1E1E"/>
<path d="M93.1225 10.9987C93.046 10.464 92.5106 10.0057 91.8987 10.0057C90.8279 10.0057 90.369 10.9224 90.369 11.9154C90.369 12.832 90.7514 13.8251 91.8987 13.8251C92.6636 13.8251 93.046 13.2904 93.199 12.6029H94.4228C94.2698 13.9778 93.352 14.8945 91.9752 14.8945C90.216 14.8945 89.2217 13.5959 89.2217 11.9918C89.2217 10.3113 90.216 9.0127 91.9752 9.0127C93.199 9.0127 94.2698 9.70018 94.4228 10.9987H93.1225Z" fill="#1E1E1E"/>
<path d="M97.0232 10.5405C98.3234 10.5405 99.1648 11.3808 99.1648 12.6794C99.1648 13.9779 98.3234 14.8182 97.0232 14.8182C95.7229 14.8182 94.958 13.9779 94.958 12.6794C94.958 11.3808 95.7229 10.5405 97.0232 10.5405ZM97.0232 13.9779C97.788 13.9779 98.0175 13.2904 98.0175 12.6794C98.0175 11.9919 97.788 11.3808 97.0232 11.3808C96.2583 11.3808 96.0288 12.0683 96.0288 12.6794C96.0288 13.3668 96.2583 13.9779 97.0232 13.9779Z" fill="#1E1E1E"/>
<path d="M99.8533 10.6933H100.924V11.228C101.23 10.7697 101.689 10.5405 102.148 10.5405C103.372 10.5405 103.601 11.228 103.601 12.221V14.7418H102.454V12.4502C102.454 11.7627 102.224 11.4572 101.766 11.4572C101.154 11.4572 100.924 11.7627 100.924 12.603V14.7418H99.7769V10.6933H99.8533Z" fill="#1E1E1E"/>
<path d="M105.971 10.6931H106.812V11.457H105.971V13.4431C105.971 13.825 106.047 13.9014 106.43 13.9014C106.583 13.9014 106.659 13.9014 106.812 13.9014V14.7416C106.659 14.7416 106.353 14.818 106.124 14.818C105.436 14.818 104.824 14.6652 104.824 13.825V11.457H104.135V10.6931H104.824V9.47095H105.971V10.6931Z" fill="#1E1E1E"/>
<path d="M108.189 12.9847C108.189 13.6721 108.571 13.9777 109.183 13.9777C109.642 13.9777 110.025 13.6721 110.101 13.443H111.095C110.79 14.436 110.101 14.8179 109.183 14.8179C107.883 14.8179 107.118 13.9013 107.118 12.6791C107.118 11.4569 107.96 10.5403 109.183 10.5403C110.56 10.5403 111.248 11.6861 111.172 12.9847H108.189ZM110.025 12.2208C109.948 11.6861 109.642 11.3805 109.107 11.3805C108.418 11.3805 108.189 11.9152 108.189 12.2208H110.025Z" fill="#1E1E1E"/>
<path d="M111.784 10.6931H112.854V11.2278C113.16 10.7694 113.619 10.5403 114.078 10.5403C115.302 10.5403 115.531 11.2278 115.531 12.2208V14.7416H114.384V12.45C114.384 11.7625 114.155 11.4569 113.696 11.4569C113.084 11.4569 112.854 11.7625 112.854 12.6027V14.7416H111.707V10.6931H111.784Z" fill="#1E1E1E"/>
<path d="M119.355 14.2073C119.049 14.6656 118.59 14.8184 118.131 14.8184C116.907 14.8184 116.295 13.7489 116.295 12.6795C116.295 11.6101 116.907 10.5407 118.131 10.5407C118.59 10.5407 119.049 10.7699 119.355 11.1518V9.08936H120.502V14.6656H119.431V14.2073H119.355ZM118.437 11.381C117.672 11.381 117.443 11.9921 117.443 12.6795C117.443 13.2906 117.749 13.9781 118.437 13.9781C119.202 13.9781 119.431 13.367 119.431 12.6795C119.355 11.9921 119.125 11.381 118.437 11.381Z" fill="#1E1E1E"/>
<path d="M122.185 12.9847C122.185 13.6721 122.567 13.9777 123.179 13.9777C123.638 13.9777 124.02 13.6721 124.097 13.443H125.091C124.785 14.436 124.097 14.8179 123.179 14.8179C121.879 14.8179 121.114 13.9013 121.114 12.6791C121.114 11.4569 121.955 10.5403 123.179 10.5403C124.556 10.5403 125.244 11.6861 125.168 12.9847H122.185ZM124.02 12.2208C123.944 11.6861 123.638 11.3805 123.102 11.3805C122.414 11.3805 122.185 11.9152 122.185 12.2208H124.02Z" fill="#1E1E1E"/>
<path d="M125.779 10.6931H126.85V11.457C127.08 10.9222 127.615 10.6167 128.15 10.6167C128.227 10.6167 128.303 10.6167 128.38 10.6931V11.7625C128.303 11.7625 128.15 11.6861 127.997 11.6861C127.156 11.6861 126.927 12.2972 126.927 12.9847V14.818H125.779V10.6931Z" fill="#1E1E1E"/>
<path d="M129.756 13.443C129.756 13.9013 130.139 14.1305 130.598 14.1305C130.904 14.1305 131.363 13.9777 131.363 13.5958C131.363 13.2902 130.904 13.1375 130.062 12.9847C129.45 12.8319 128.762 12.6028 128.762 11.9153C128.762 10.8459 129.68 10.6167 130.521 10.6167C131.439 10.6167 132.204 10.9222 132.28 11.9153H131.21C131.21 11.457 130.827 11.3806 130.445 11.3806C130.215 11.3806 129.833 11.457 129.833 11.7625C129.833 12.1444 130.445 12.2208 131.133 12.3736C131.822 12.5264 132.433 12.7555 132.433 13.5194C132.433 14.5888 131.516 14.9707 130.598 14.9707C129.68 14.9707 128.762 14.5888 128.686 13.5194H129.756V13.443Z" fill="#1E1E1E"/>
<path d="M292.047 9.08911H293.271V13.6723H296.024V14.7417H292.047V9.08911Z" fill="#1E1E1E"/>
<path d="M297.477 12.9849C297.477 13.6724 297.86 13.9779 298.471 13.9779C298.93 13.9779 299.313 13.6724 299.389 13.4432H300.384C300.078 14.4362 299.389 14.8182 298.471 14.8182C297.171 14.8182 296.406 13.9015 296.406 12.6794C296.406 11.4572 297.248 10.5405 298.471 10.5405C299.848 10.5405 300.537 11.6863 300.46 12.9849H297.477ZM299.313 12.221C299.236 11.6863 298.93 11.3808 298.395 11.3808C297.707 11.3808 297.477 11.9155 297.477 12.221H299.313Z" fill="#1E1E1E"/>
<path d="M301.072 11.9155C301.148 10.8461 302.066 10.5405 302.984 10.5405C303.825 10.5405 304.743 10.6933 304.743 11.6863V13.8252C304.743 14.2071 304.82 14.589 304.896 14.7418H303.749C303.672 14.589 303.672 14.5126 303.672 14.3599C303.29 14.7418 302.831 14.8946 302.296 14.8946C301.531 14.8946 300.919 14.5126 300.919 13.6724C300.919 12.7557 301.607 12.5266 302.296 12.4502C302.984 12.3738 303.596 12.3738 303.596 11.9155C303.596 11.4572 303.29 11.3808 302.908 11.3808C302.449 11.3808 302.219 11.5336 302.143 11.9919H301.072V11.9155ZM303.672 12.7557C303.52 12.9085 303.061 12.9085 302.755 12.9849C302.372 13.0613 302.066 13.1377 302.066 13.596C302.066 13.9779 302.372 14.1307 302.755 14.1307C303.596 14.1307 303.672 13.4432 303.672 13.2141V12.7557Z" fill="#1E1E1E"/>
<path d="M308.49 14.207C308.184 14.6653 307.725 14.8181 307.266 14.8181C306.043 14.8181 305.431 13.7487 305.431 12.6793C305.431 11.6099 306.043 10.5405 307.266 10.5405C307.725 10.5405 308.184 10.7696 308.49 11.1516V9.08911H309.637V14.6653H308.567V14.207H308.49ZM307.572 11.3807C306.807 11.3807 306.578 11.9918 306.578 12.6793C306.578 13.2904 306.884 13.9779 307.572 13.9779C308.337 13.9779 308.567 13.3668 308.567 12.6793C308.49 11.9918 308.261 11.3807 307.572 11.3807Z" fill="#1E1E1E"/>
<path d="M311.32 12.9847C311.32 13.6721 311.702 13.9777 312.314 13.9777C312.773 13.9777 313.156 13.6721 313.232 13.443H314.226C313.92 14.436 313.232 14.8179 312.314 14.8179C311.014 14.8179 310.249 13.9013 310.249 12.6791C310.249 11.4569 311.09 10.5403 312.314 10.5403C313.691 10.5403 314.379 11.6861 314.303 12.9847H311.32ZM313.156 12.2208C313.079 11.6861 312.773 11.3805 312.238 11.3805C311.549 11.3805 311.32 11.9152 311.32 12.2208H313.156Z" fill="#1E1E1E"/>
<path d="M314.914 10.6931H315.985V11.457C316.214 10.9222 316.75 10.6167 317.285 10.6167C317.362 10.6167 317.438 10.6167 317.515 10.6931V11.7625C317.438 11.7625 317.285 11.6861 317.132 11.6861C316.291 11.6861 316.061 12.2972 316.061 12.9847V14.818H314.914V10.6931Z" fill="#1E1E1E"/>
<path d="M318.891 13.443C318.891 13.9013 319.274 14.1305 319.732 14.1305C320.038 14.1305 320.497 13.9777 320.497 13.5958C320.497 13.2902 320.038 13.1375 319.197 12.9847C318.585 12.8319 317.897 12.6028 317.897 11.9153C317.897 10.8459 318.815 10.6167 319.656 10.6167C320.574 10.6167 321.339 10.9222 321.415 11.9153H320.344C320.344 11.457 319.962 11.3806 319.579 11.3806C319.35 11.3806 318.968 11.457 318.968 11.7625C318.968 12.1444 319.579 12.2208 320.268 12.3736C320.956 12.5264 321.568 12.7555 321.568 13.5194C321.568 14.5888 320.65 14.9707 319.732 14.9707C318.815 14.9707 317.897 14.5888 317.82 13.5194H318.891V13.443Z" fill="#1E1E1E"/>
<path d="M178.704 3.896C178.704 4.65986 179.316 4.96541 179.928 4.96541C180.387 4.96541 180.998 4.81264 180.998 4.27793C180.998 3.66684 180.157 3.59045 179.316 3.36129C178.474 3.13213 177.633 2.82658 177.633 1.75717C177.633 0.611367 178.704 0.0766602 179.698 0.0766602C180.845 0.0766602 181.916 0.611367 181.916 1.90994H180.845C180.769 1.22246 180.31 1.06969 179.698 1.06969C179.316 1.06969 178.857 1.22246 178.857 1.68078C178.857 2.1391 179.086 2.1391 180.539 2.52103C180.922 2.59742 182.222 2.90297 182.222 4.12516C182.222 5.11818 181.381 5.95844 179.851 5.95844C178.627 5.95844 177.48 5.34734 177.48 3.97238H178.704V3.896Z" fill="#1E1E1E"/>
<path d="M184.211 1.68044H185.052V2.44431H184.211V4.43036C184.211 4.81229 184.287 4.88868 184.67 4.88868C184.823 4.88868 184.899 4.88868 185.052 4.88868V5.72893C184.899 5.72893 184.593 5.80532 184.364 5.80532C183.675 5.80532 183.063 5.65255 183.063 4.81229V2.44431H182.375V1.68044H183.063V0.458252H184.211V1.68044Z" fill="#1E1E1E"/>
<path d="M185.587 1.68063H186.658V2.4445C186.888 1.90979 187.423 1.60425 187.959 1.60425C188.035 1.60425 188.112 1.60425 188.188 1.68063V2.75005C188.112 2.75005 187.959 2.67366 187.806 2.67366C186.964 2.67366 186.735 3.28476 186.735 3.97224V5.80552H185.587V1.68063Z" fill="#1E1E1E"/>
<path d="M190.482 1.60327C191.782 1.60327 192.623 2.44353 192.623 3.7421C192.623 5.04067 191.782 5.88093 190.482 5.88093C189.181 5.88093 188.417 5.04067 188.417 3.7421C188.417 2.44353 189.181 1.60327 190.482 1.60327ZM190.482 5.04067C191.247 5.04067 191.476 4.35319 191.476 3.7421C191.476 3.05462 191.247 2.44353 190.482 2.44353C189.717 2.44353 189.487 3.13101 189.487 3.7421C189.487 4.35319 189.717 5.04067 190.482 5.04067Z" fill="#1E1E1E"/>
<path d="M193.312 1.68036H194.383V2.21507C194.689 1.75675 195.148 1.52759 195.606 1.52759C196.83 1.52759 197.06 2.21507 197.06 3.2081V5.72886H195.912V3.43726C195.912 2.74978 195.683 2.44423 195.224 2.44423C194.612 2.44423 194.383 2.74977 194.383 3.59003V5.72886H193.235V1.68036H193.312Z" fill="#1E1E1E"/>
<path d="M201.878 5.4997C201.878 6.18718 201.649 7.33298 199.737 7.33298C198.972 7.33298 197.977 6.95104 197.977 6.0344H199.125C199.201 6.41634 199.584 6.56911 199.966 6.56911C200.578 6.56911 200.884 6.11079 200.884 5.57608V4.96499C200.654 5.42331 200.119 5.57608 199.66 5.57608C198.436 5.57608 197.901 4.65944 197.901 3.51364C197.901 2.44423 198.513 1.52759 199.66 1.52759C200.196 1.52759 200.578 1.68036 200.884 2.21507V1.68036H201.955V5.4997H201.878ZM200.807 3.66642C200.807 2.97894 200.578 2.44423 199.89 2.44423C199.278 2.44423 198.972 2.97894 198.972 3.59003C198.972 4.20112 199.201 4.81222 199.89 4.81222C200.501 4.81222 200.807 4.27751 200.807 3.66642Z" fill="#1E1E1E"/>
<path d="M160.654 9.08911H163.178C164.555 9.08911 165.091 10.0058 165.091 10.9224C165.091 11.839 164.555 12.7557 163.178 12.7557H161.878V14.7417H160.654V9.08911ZM161.878 11.7626H162.872C163.484 11.7626 163.943 11.6099 163.943 10.9224C163.943 10.2349 163.408 10.0821 162.872 10.0821H161.878V11.7626Z" fill="#1E1E1E"/>
<path d="M166.697 12.9849C166.697 13.6724 167.079 13.9779 167.691 13.9779C168.15 13.9779 168.532 13.6724 168.609 13.4432H169.603C169.297 14.4362 168.609 14.8182 167.691 14.8182C166.391 14.8182 165.626 13.9015 165.626 12.6794C165.626 11.4572 166.467 10.5405 167.691 10.5405C169.068 10.5405 169.756 11.6863 169.68 12.9849H166.697ZM168.532 12.221C168.456 11.6863 168.15 11.3808 167.615 11.3808C166.926 11.3808 166.697 11.9155 166.697 12.221H168.532Z" fill="#1E1E1E"/>
<path d="M170.292 10.6933H171.362V11.4572C171.592 10.9225 172.127 10.6169 172.663 10.6169C172.739 10.6169 172.816 10.6169 172.892 10.6933V11.7627C172.816 11.7627 172.663 11.6864 172.51 11.6864C171.668 11.6864 171.439 12.2975 171.439 12.9849V14.8182H170.292V10.6933Z" fill="#1E1E1E"/>
<path d="M173.656 11.3807H172.968V10.6168H173.656V10.3113C173.656 9.62382 174.115 9.08911 175.033 9.08911C175.262 9.08911 175.415 9.08911 175.645 9.08911V9.92937C175.492 9.92937 175.415 9.92937 175.262 9.92937C174.956 9.92937 174.803 10.0821 174.803 10.3877V10.6932H175.568V11.4571H174.803V14.7417H173.656V11.3807Z" fill="#1E1E1E"/>
<path d="M177.939 10.5403C179.239 10.5403 180.081 11.3805 180.081 12.6791C180.081 13.9777 179.239 14.8179 177.939 14.8179C176.639 14.8179 175.874 13.9777 175.874 12.6791C175.874 11.3805 176.715 10.5403 177.939 10.5403ZM177.939 13.9777C178.704 13.9777 178.933 13.2902 178.933 12.6791C178.933 11.9916 178.704 11.3805 177.939 11.3805C177.174 11.3805 176.945 12.068 176.945 12.6791C177.021 13.3666 177.251 13.9777 177.939 13.9777Z" fill="#1E1E1E"/>
<path d="M180.769 10.6931H181.839V11.457C182.069 10.9222 182.604 10.6167 183.14 10.6167C183.216 10.6167 183.293 10.6167 183.369 10.6931V11.7625C183.293 11.7625 183.14 11.6861 182.987 11.6861C182.145 11.6861 181.916 12.2972 181.916 12.9847V14.818H180.769V10.6931Z" fill="#1E1E1E"/>
<path d="M183.904 10.6931H184.975V11.2278C185.281 10.8458 185.664 10.5403 186.199 10.5403C186.734 10.5403 187.193 10.6931 187.423 11.2278C187.652 10.8458 188.111 10.5403 188.646 10.5403C189.488 10.5403 190.1 10.9222 190.1 11.9916V14.7416H188.952V12.4499C188.952 11.9152 188.876 11.4569 188.264 11.4569C187.652 11.4569 187.499 11.9916 187.499 12.4499V14.7416H186.352V12.4499C186.352 11.9916 186.352 11.4569 185.664 11.4569C185.434 11.4569 184.899 11.6097 184.899 12.3736V14.7416H183.904V10.6931Z" fill="#1E1E1E"/>
<path d="M191.935 12.9847C191.935 13.6721 192.317 13.9777 192.929 13.9777C193.388 13.9777 193.77 13.6721 193.847 13.443H194.841C194.535 14.436 193.847 14.8179 192.929 14.8179C191.629 14.8179 190.864 13.9013 190.864 12.6791C190.864 11.4569 191.705 10.5403 192.929 10.5403C194.306 10.5403 194.994 11.6861 194.918 12.9847H191.935ZM193.77 12.2208C193.694 11.6861 193.388 11.3805 192.852 11.3805C192.164 11.3805 191.935 11.9152 191.935 12.2208H193.77Z" fill="#1E1E1E"/>
<path d="M195.529 10.6931H196.6V11.457C196.83 10.9222 197.365 10.6167 197.9 10.6167C197.977 10.6167 198.053 10.6167 198.13 10.6931V11.7625C198.053 11.7625 197.9 11.6861 197.747 11.6861C196.906 11.6861 196.677 12.2972 196.677 12.9847V14.818H195.529V10.6931Z" fill="#1E1E1E"/>
<path d="M199.43 13.443C199.43 13.9013 199.812 14.1305 200.271 14.1305C200.577 14.1305 201.036 13.9777 201.036 13.5958C201.036 13.2902 200.577 13.1375 199.736 12.9847C199.124 12.8319 198.435 12.6028 198.435 11.9153C198.435 10.8459 199.353 10.6167 200.195 10.6167C201.112 10.6167 201.877 10.9222 201.954 11.9153H200.883C200.883 11.457 200.501 11.3806 200.118 11.3806C199.889 11.3806 199.506 11.457 199.506 11.7625C199.506 12.1444 200.118 12.2208 200.806 12.3736C201.495 12.5264 202.107 12.7555 202.107 13.5194C202.107 14.5888 201.189 14.9707 200.271 14.9707C199.353 14.9707 198.435 14.5888 198.359 13.5194H199.43V13.443Z" fill="#1E1E1E"/>
<path d="M11.1361 28.5662C11.0597 27.8024 10.6007 27.4968 9.91235 27.4968C9.37694 27.4968 8.84153 27.726 8.84153 28.3371C8.84153 28.9482 9.6064 29.0245 10.4478 29.1773C11.2126 29.3301 12.054 29.6356 12.054 30.6287C12.054 31.6981 11.0597 32.08 10.1418 32.08C9.07099 32.08 8.07666 31.5453 8.07666 30.3231H8.68856C8.68856 31.1634 9.37694 31.4689 10.1418 31.4689C10.7537 31.4689 11.3656 31.3161 11.3656 30.5523C11.3656 29.8648 10.6007 29.7884 9.75938 29.5593C8.91802 29.3301 8.15315 29.1773 8.15315 28.2607C8.15315 27.2676 9.07099 26.8093 9.91235 26.8093C10.9067 26.8093 11.6716 27.2676 11.748 28.3371H11.1361V28.5662Z" fill="#333333"/>
<path d="M13.431 28.4898H14.1194V29.0245H13.431V31.2398C13.431 31.5453 13.5075 31.5453 13.8899 31.5453H14.1959V32.08H13.7369C13.1251 32.08 12.8956 31.9272 12.8956 31.3161V29.0245H12.2837V28.4898H12.8956V27.4204H13.5075V28.4898H13.431Z" fill="#333333"/>
<path d="M14.8076 28.4897H15.343V29.2536C15.649 28.7189 16.0314 28.4133 16.6433 28.4133V29.0244C15.7255 29.0244 15.343 29.5591 15.343 30.4758V32.0799H14.8076V28.4897Z" fill="#333333"/>
<path d="M18.5546 28.3362C19.7019 28.3362 20.3138 29.1764 20.3138 30.1695C20.3138 31.2389 19.7019 32.0028 18.5546 32.0028C17.4073 32.0028 16.7954 31.1625 16.7954 30.1695C16.7954 29.1764 17.4073 28.3362 18.5546 28.3362ZM18.5546 31.5444C19.1665 31.5444 19.6254 31.0861 19.6254 30.1695C19.6254 29.3292 19.1665 28.7945 18.5546 28.7945C17.9427 28.7945 17.4838 29.2528 17.4838 30.1695C17.4073 31.0861 17.9427 31.5444 18.5546 31.5444Z" fill="#333333"/>
<path d="M20.9258 28.4902H21.4612V29.0249C21.6907 28.5666 22.0731 28.4138 22.6085 28.4138C23.5263 28.4138 23.8323 28.9485 23.8323 29.7124V32.0804H23.2969V29.636C23.2969 29.1777 22.9909 28.9485 22.6085 28.9485C21.9201 28.9485 21.5377 29.4068 21.5377 30.0943V32.0804H20.9258V28.4902Z" fill="#333333"/>
<path d="M27.8096 31.6979C27.8096 32.8437 27.2742 33.4548 26.1269 33.4548C25.4385 33.4548 24.6737 33.1493 24.6737 32.3854H25.2856C25.2856 32.8437 25.821 32.9965 26.2034 32.9965C26.9683 32.9965 27.2742 32.4618 27.2742 31.6215V31.3924C27.0448 31.8507 26.5858 32.0034 26.2034 32.0034C25.1326 32.0034 24.5972 31.1632 24.5972 30.1702C24.5972 29.3299 24.9796 28.2605 26.2799 28.2605C26.7388 28.2605 27.1212 28.4897 27.3507 28.8716V28.3369H27.8861V31.6979H27.8096ZM27.2742 30.1702C27.2742 29.5591 26.9683 28.8716 26.2799 28.8716C25.515 28.8716 25.2091 29.4827 25.2091 30.1702C25.2091 30.7813 25.4385 31.5451 26.2034 31.5451C26.9683 31.5451 27.2742 30.8576 27.2742 30.1702Z" fill="#333333"/>
<path d="M31.7857 30.8582C31.6327 31.6221 31.0973 32.0804 30.256 32.0804C29.1087 32.0804 28.5732 31.3165 28.5732 30.2471C28.5732 29.1777 29.2616 28.4138 30.256 28.4138C31.4798 28.4138 31.9387 29.5596 31.8622 30.4763H29.1851C29.1851 31.0874 29.4911 31.6221 30.256 31.6221C30.7149 31.6221 31.0973 31.3929 31.1738 30.9346H31.7857V30.8582ZM31.1738 29.8652C31.1738 29.3305 30.7149 28.8721 30.1795 28.8721C29.5676 28.8721 29.1851 29.3305 29.1851 29.8652H31.1738Z" fill="#333333"/>
<path d="M32.3973 28.4902H32.9327V29.2541C33.2386 28.7194 33.6211 28.4138 34.233 28.4138V29.0249C33.3151 29.0249 32.9327 29.5596 32.9327 30.4763V32.0804H32.3208V28.4902H32.3973Z" fill="#333333"/>
<path d="M15.4189 38.5718C15.3424 38.1135 15.0365 37.8843 14.5011 37.8843C13.6597 37.8843 13.4303 38.5718 13.4303 39.2593C13.4303 39.9468 13.7362 40.5578 14.5011 40.5578C15.0365 40.5578 15.4189 40.2523 15.4954 39.7176H16.1073C15.9543 40.5578 15.4189 41.0926 14.5011 41.0926C13.4303 41.0926 12.8184 40.3287 12.8184 39.2593C12.8184 38.1899 13.3538 37.3496 14.5011 37.3496C15.3424 37.3496 15.9543 37.7315 16.0308 38.5718H15.4189Z" fill="#333333"/>
<path d="M19.7024 41.0164H19.167V40.4817C18.9375 40.9401 18.5551 41.0928 18.0197 41.0928C17.1018 41.0928 16.7959 40.5581 16.7959 39.7943V37.4263H17.4078V39.8706C17.4078 40.329 17.7137 40.5581 18.0962 40.5581C18.7846 40.5581 19.167 40.0998 19.167 39.4123V37.4263H19.7789V41.0164H19.7024Z" fill="#333333"/>
<path d="M20.5438 37.426H21.0792V38.1899C21.3851 37.6552 21.7676 37.3496 22.3795 37.3496V37.9607C21.4616 37.9607 21.0792 38.4954 21.0792 39.412V41.0162H20.4673V37.426H20.5438Z" fill="#333333"/>
<path d="M22.8382 37.426H23.3736V38.1899C23.6796 37.6552 24.062 37.3496 24.6739 37.3496V37.9607C23.7561 37.9607 23.3736 38.4954 23.3736 39.412V41.0162H22.7617V37.426H22.8382Z" fill="#333333"/>
<path d="M28.0381 39.8704C27.8852 40.6343 27.3498 41.0926 26.5084 41.0926C25.3611 41.0926 24.8257 40.3287 24.8257 39.2593C24.8257 38.1899 25.5141 37.426 26.5084 37.426C27.7322 37.426 28.1911 38.5718 28.1146 39.4885H25.4376C25.4376 40.0996 25.7435 40.6343 26.5084 40.6343C26.9673 40.6343 27.3498 40.4051 27.4262 39.9468H28.0381V39.8704ZM27.5027 38.8774C27.5027 38.3427 27.0438 37.8843 26.5084 37.8843C25.8965 37.8843 25.5141 38.3427 25.5141 38.8774H27.5027Z" fill="#333333"/>
<path d="M28.7264 37.426H29.2618V37.9607C29.4913 37.5024 29.8737 37.3496 30.4091 37.3496C31.327 37.3496 31.6329 37.8843 31.6329 38.6482V41.0162H31.021V38.5718C31.021 38.1135 30.7151 37.8843 30.3326 37.8843C29.6442 37.8843 29.2618 38.3426 29.2618 39.0301V41.0162H28.6499V37.426H28.7264Z" fill="#333333"/>
<path d="M33.3924 37.4261H34.0808V37.9608H33.3924V40.176C33.3924 40.4816 33.4689 40.4816 33.8513 40.4816H34.1573V41.0163H33.6984C33.0865 41.0163 32.857 40.8635 32.857 40.2524V37.9608H32.2451V37.4261H32.857V36.3567H33.4689V37.4261H33.3924Z" fill="#333333"/>
<path d="M13.0478 46.3625C14.1951 46.3625 14.807 47.2028 14.807 48.1958C14.807 49.2652 14.1951 50.0291 13.0478 50.0291C11.9005 50.0291 11.2886 49.1889 11.2886 48.1958C11.2886 47.1264 11.9005 46.3625 13.0478 46.3625ZM13.0478 49.5708C13.6597 49.5708 14.1186 49.1125 14.1186 48.1958C14.1186 47.3556 13.6597 46.8209 13.0478 46.8209C12.4359 46.8209 11.977 47.2792 11.977 48.1958C11.9005 49.0361 12.4359 49.5708 13.0478 49.5708Z" fill="#333333"/>
<path d="M15.7247 46.8972H15.1128V46.3625H15.7247V45.8278C15.7247 45.2167 16.1071 44.9111 16.719 44.9111C16.7955 44.9111 17.025 44.9111 17.1015 44.9875V45.5222C17.025 45.5222 16.872 45.4458 16.7955 45.4458C16.4896 45.4458 16.3366 45.5222 16.3366 45.8278V46.2861H17.025V46.8208H16.3366V49.8763H15.7247V46.8972Z" fill="#333333"/>
<path d="M17.6363 46.8972H17.0244V46.3625H17.6363V45.8278C17.6363 45.2167 18.0187 44.9111 18.6306 44.9111C18.7071 44.9111 18.9366 44.9111 19.0131 44.9875V45.5222C18.9366 45.5222 18.7836 45.4458 18.7071 45.4458C18.4012 45.4458 18.2482 45.5222 18.2482 45.8278V46.2861H18.9366V46.8208H18.2482V49.8763H17.6363V46.8972Z" fill="#333333"/>
<path d="M22.4551 48.8069C22.3022 49.5708 21.7668 50.0291 20.9254 50.0291C19.7781 50.0291 19.2427 49.2652 19.2427 48.1958C19.2427 47.1264 19.9311 46.3625 20.9254 46.3625C22.1492 46.3625 22.6081 47.5083 22.5316 48.425H19.8546C19.8546 49.0361 20.1605 49.5708 20.9254 49.5708C21.3843 49.5708 21.7668 49.3416 21.8432 48.8833H22.4551V48.8069ZM21.9197 47.8903C21.9197 47.3556 21.4608 46.8973 20.9254 46.8973C20.3135 46.8973 19.9311 47.3556 19.9311 47.8903H21.9197Z" fill="#333333"/>
<path d="M23.0667 46.4389H23.6021V47.2028C23.9081 46.6681 24.2905 46.3625 24.9024 46.3625V46.9736C23.9846 46.9736 23.6021 47.5083 23.6021 48.425V50.0291H22.9902V46.4389H23.0667Z" fill="#333333"/>
<path d="M26.0499 45.7519H25.438V45.0645H26.0499V45.7519ZM25.438 46.4394H26.0499V50.0296H25.438V46.4394Z" fill="#333333"/>
<path d="M26.9676 46.4389H27.503V46.9736C27.7325 46.5153 28.1149 46.3625 28.6503 46.3625C29.5682 46.3625 29.8741 46.8973 29.8741 47.6611V50.0291H29.2622V47.5847C29.2622 47.1264 28.9563 46.8973 28.5738 46.8973C27.8854 46.8973 27.503 47.3556 27.503 48.0431V50.0291H26.8911V46.4389H26.9676Z" fill="#333333"/>
<path d="M33.8502 49.6471C33.8502 50.7929 33.3147 51.404 32.1674 51.404C31.4791 51.404 30.7142 51.0985 30.7142 50.3346H31.3261C31.3261 50.7929 31.8615 50.9457 32.2439 50.9457C33.0088 50.9457 33.3147 50.411 33.3147 49.5707V49.3416C33.0853 49.7999 32.6264 49.9527 32.2439 49.9527C31.1731 49.9527 30.6377 49.1124 30.6377 48.1194C30.6377 47.2791 31.0201 46.2097 32.3204 46.2097C32.7793 46.2097 33.1618 46.4389 33.3912 46.8208V46.2861H33.9266V49.6471H33.8502ZM33.2383 48.1194C33.2383 47.5083 32.9323 46.8208 32.2439 46.8208C31.4791 46.8208 31.1731 47.4319 31.1731 48.1194C31.1731 48.7305 31.4026 49.4943 32.1674 49.4943C32.9323 49.4943 33.2383 48.8069 33.2383 48.1194Z" fill="#333333"/>
<path d="M16.3366 276.724H15.6482L14.5009 272.599L13.3536 276.724H12.6652L11.4414 271.835H12.1298L13.1241 275.884L14.1949 271.835H14.8833L15.9541 275.884L16.9485 271.835H17.6369L16.3366 276.724Z" fill="#333333"/>
<path d="M20.7725 275.578C20.6195 276.342 20.0841 276.8 19.2428 276.8C18.0955 276.8 17.5601 276.036 17.5601 274.967C17.5601 273.898 18.2484 273.134 19.2428 273.134C20.4666 273.134 20.9255 274.28 20.849 275.196H18.172C18.172 275.807 18.4779 276.342 19.2428 276.342C19.7017 276.342 20.0841 276.113 20.1606 275.655H20.7725V275.578ZM20.2371 274.585C20.2371 274.05 19.7782 273.592 19.2428 273.592C18.6309 273.592 18.2484 274.05 18.2484 274.585H20.2371Z" fill="#333333"/>
<path d="M24.5967 276.647C24.5203 276.724 24.3673 276.724 24.2143 276.724C23.9084 276.724 23.7554 276.571 23.7554 276.189C23.4494 276.571 22.9905 276.724 22.5316 276.724C21.9197 276.724 21.3843 276.418 21.3843 275.731C21.3843 274.891 21.9962 274.738 22.6081 274.661C23.22 274.509 23.8319 274.585 23.8319 274.127C23.8319 273.592 23.4494 273.516 23.067 273.516C22.6081 273.516 22.2256 273.668 22.1491 274.203H21.5373C21.5373 273.287 22.2256 272.981 23.067 272.981C23.6789 272.981 24.3673 273.134 24.3673 273.974V275.807C24.3673 276.113 24.3673 276.189 24.5203 276.189C24.5967 276.189 24.5967 276.189 24.6732 276.189V276.647H24.5967ZM23.6789 274.891C23.4494 275.043 22.9905 275.043 22.6081 275.12C22.2256 275.196 21.9197 275.349 21.9197 275.731C21.9197 276.113 22.2256 276.266 22.6081 276.266C23.3729 276.266 23.6789 275.807 23.6789 275.425V274.891Z" fill="#333333"/>
<path d="M25.209 271.759H25.8209V274.662L27.4271 273.134H28.192L26.8152 274.432L28.345 276.724H27.5801L26.3563 274.891L25.8209 275.425V276.8H25.209V271.759Z" fill="#333333"/>
<path d="M31.7857 275.578C31.6327 276.342 31.0973 276.8 30.256 276.8C29.1087 276.8 28.5732 276.036 28.5732 274.967C28.5732 273.897 29.2616 273.134 30.256 273.134C31.4798 273.134 31.9387 274.279 31.8622 275.196H29.1851C29.1851 275.807 29.4911 276.342 30.256 276.342C30.7149 276.342 31.0973 276.113 31.1738 275.654H31.7857V275.578ZM31.1738 274.585C31.1738 274.05 30.7149 273.592 30.1795 273.592C29.5676 273.592 29.1851 274.05 29.1851 274.585H31.1738Z" fill="#333333"/>
<path d="M32.3973 273.134H32.9327V273.897C33.2386 273.363 33.6211 273.057 34.233 273.057V273.668C33.3151 273.668 32.9327 274.203 32.9327 275.12V276.724H32.3208V273.134H32.3973Z" fill="#333333"/>
<path d="M15.4189 283.292C15.3424 282.834 15.0365 282.605 14.5011 282.605C13.6597 282.605 13.4303 283.292 13.4303 283.98C13.4303 284.667 13.7362 285.279 14.5011 285.279C15.0365 285.279 15.4189 284.973 15.4954 284.438H16.1073C15.9543 285.279 15.4189 285.813 14.5011 285.813C13.4303 285.813 12.8184 285.049 12.8184 283.98C12.8184 282.911 13.3538 282.07 14.5011 282.07C15.3424 282.07 15.9543 282.452 16.0308 283.292H15.4189Z" fill="#333333"/>
<path d="M19.7024 285.66H19.167V285.126C18.9375 285.584 18.5551 285.737 18.0197 285.737C17.1018 285.737 16.7959 285.202 16.7959 284.438V282.07H17.4078V284.515C17.4078 284.973 17.7137 285.202 18.0962 285.202C18.7846 285.202 19.167 284.744 19.167 284.056V282.07H19.7789V285.66H19.7024Z" fill="#333333"/>
<path d="M20.5438 282.147H21.0792V282.911C21.3851 282.376 21.7676 282.07 22.3795 282.07V282.681C21.4616 282.681 21.0792 283.216 21.0792 284.133V285.737H20.4673V282.147H20.5438Z" fill="#333333"/>
<path d="M22.8382 282.147H23.3736V282.911C23.6796 282.376 24.062 282.07 24.6739 282.07V282.681C23.7561 282.681 23.3736 283.216 23.3736 284.133V285.737H22.7617V282.147H22.8382Z" fill="#333333"/>
<path d="M28.0381 284.514C27.8852 285.278 27.3498 285.737 26.5084 285.737C25.3611 285.737 24.8257 284.973 24.8257 283.903C24.8257 282.834 25.5141 282.07 26.5084 282.07C27.7322 282.07 28.1911 283.216 28.1146 284.133H25.4376C25.4376 284.744 25.7435 285.278 26.5084 285.278C26.9673 285.278 27.3498 285.049 27.4262 284.591H28.0381V284.514ZM27.5027 283.521C27.5027 282.987 27.0438 282.528 26.5084 282.528C25.8965 282.528 25.5141 282.987 25.5141 283.521H27.5027Z" fill="#333333"/>
<path d="M28.7264 282.146H29.2618V282.681C29.4913 282.223 29.8737 282.07 30.4091 282.07C31.327 282.07 31.6329 282.605 31.6329 283.369V285.737H31.021V283.292C31.021 282.834 30.7151 282.605 30.3326 282.605C29.6442 282.605 29.2618 283.063 29.2618 283.751V285.737H28.6499V282.146H28.7264Z" fill="#333333"/>
<path d="M33.3924 282.147H34.0808V282.681H33.3924V284.896C33.3924 285.202 33.4689 285.202 33.8513 285.202H34.1573V285.737H33.6984C33.0865 285.737 32.857 285.584 32.857 284.973V282.681H32.2451V282.147H32.857V281.077H33.4689V282.147H33.3924Z" fill="#333333"/>
<path d="M13.0478 291.007C14.1951 291.007 14.807 291.847 14.807 292.84C14.807 293.91 14.1951 294.673 13.0478 294.673C11.9005 294.673 11.2886 293.833 11.2886 292.84C11.2886 291.847 11.9005 291.007 13.0478 291.007ZM13.0478 294.215C13.6597 294.215 14.1186 293.757 14.1186 292.84C14.1186 292 13.6597 291.465 13.0478 291.465C12.4359 291.465 11.977 291.923 11.977 292.84C11.9005 293.757 12.4359 294.215 13.0478 294.215Z" fill="#333333"/>
<path d="M15.7247 291.618H15.1128V291.083H15.7247V290.548C15.7247 289.937 16.1071 289.632 16.719 289.632C16.7955 289.632 17.025 289.632 17.1015 289.708V290.243C17.025 290.243 16.872 290.167 16.7955 290.167C16.4896 290.167 16.3366 290.243 16.3366 290.548V291.007H17.025V291.541H16.3366V294.597H15.7247V291.618Z" fill="#333333"/>
<path d="M17.6363 291.618H17.0244V291.083H17.6363V290.548C17.6363 289.937 18.0187 289.632 18.6306 289.632C18.7071 289.632 18.9366 289.632 19.0131 289.708V290.243C18.9366 290.243 18.7836 290.167 18.7071 290.167C18.4012 290.167 18.2482 290.243 18.2482 290.548V291.007H18.9366V291.541H18.2482V294.597H17.6363V291.618Z" fill="#333333"/>
<path d="M22.4551 293.528C22.3022 294.291 21.7668 294.75 20.9254 294.75C19.7781 294.75 19.2427 293.986 19.2427 292.917C19.2427 291.847 19.9311 291.083 20.9254 291.083C22.1492 291.083 22.6081 292.229 22.5316 293.146H19.8546C19.8546 293.757 20.1605 294.291 20.9254 294.291C21.3843 294.291 21.7668 294.062 21.8432 293.604H22.4551V293.528ZM21.9197 292.535C21.9197 292 21.4608 291.542 20.9254 291.542C20.3135 291.542 19.9311 292 19.9311 292.535H21.9197Z" fill="#333333"/>
<path d="M23.0667 291.083H23.6021V291.847C23.9081 291.312 24.2905 291.007 24.9024 291.007V291.618C23.9846 291.618 23.6021 292.153 23.6021 293.069V294.673H22.9902V291.083H23.0667Z" fill="#333333"/>
<path d="M26.0499 290.473H25.438V289.785H26.0499V290.473ZM25.438 291.084H26.0499V294.674H25.438V291.084Z" fill="#333333"/>
<path d="M26.9676 291.083H27.503V291.618C27.7325 291.16 28.1149 291.007 28.6503 291.007C29.5682 291.007 29.8741 291.542 29.8741 292.305V294.673H29.2622V292.229C29.2622 291.771 28.9563 291.542 28.5738 291.542C27.8854 291.542 27.503 292 27.503 292.687V294.673H26.8911V291.083H26.9676Z" fill="#333333"/>
<path d="M33.8502 294.368C33.8502 295.514 33.3147 296.125 32.1674 296.125C31.4791 296.125 30.7142 295.819 30.7142 295.055H31.3261C31.3261 295.514 31.8615 295.666 32.2439 295.666C33.0088 295.666 33.3147 295.132 33.3147 294.291V294.062C33.0853 294.521 32.6264 294.673 32.2439 294.673C31.1731 294.673 30.6377 293.833 30.6377 292.84C30.6377 292 31.0201 290.93 32.3204 290.93C32.7793 290.93 33.1618 291.16 33.3912 291.542V291.007H33.9266V294.368H33.8502ZM33.2383 292.84C33.2383 292.229 32.9323 291.542 32.2439 291.542C31.4791 291.542 31.1731 292.153 31.1731 292.84C31.1731 293.451 31.4026 294.215 32.1674 294.215C32.9323 294.215 33.2383 293.451 33.2383 292.84Z" fill="#333333"/>
<path d="M50.2941 313.233H49.6057L48.4584 309.109L47.3111 313.233H46.6227L45.3989 308.345H46.0873L47.0816 312.393L48.1525 308.345H48.8408L49.9117 312.393L50.906 308.345H51.5944L50.2941 313.233Z" fill="#333333"/>
<path d="M54.8062 312.088C54.6532 312.852 54.1178 313.31 53.2765 313.31C52.1292 313.31 51.5938 312.546 51.5938 311.477C51.5938 310.407 52.2821 309.643 53.2765 309.643C54.5003 309.643 54.9592 310.789 54.8827 311.706H52.2056C52.2056 312.317 52.5116 312.852 53.2765 312.852C53.7354 312.852 54.1178 312.622 54.1943 312.164H54.8062V312.088ZM54.2708 311.095C54.2708 310.56 53.8119 310.102 53.2765 310.102C52.6646 310.102 52.2821 310.56 52.2821 311.095H54.2708Z" fill="#333333"/>
<path d="M58.6304 313.157C58.5539 313.233 58.401 313.233 58.248 313.233C57.942 313.233 57.7891 313.081 57.7891 312.699C57.4831 313.081 57.0242 313.233 56.5653 313.233C55.9534 313.233 55.418 312.928 55.418 312.24C55.418 311.4 56.0299 311.247 56.6418 311.171C57.2537 311.018 57.8656 311.095 57.8656 310.636C57.8656 310.102 57.4831 310.025 57.1007 310.025C56.6418 310.025 56.2593 310.178 56.1828 310.713H55.418C55.418 309.796 56.1064 309.49 56.9477 309.49C57.5596 309.49 58.248 309.643 58.248 310.483V312.317C58.248 312.622 58.248 312.699 58.401 312.699C58.4775 312.699 58.4775 312.699 58.5539 312.699V313.157H58.6304ZM57.7126 311.4C57.4831 311.553 57.0242 311.553 56.6418 311.629C56.2593 311.706 55.9534 311.858 55.9534 312.24C55.9534 312.622 56.2593 312.775 56.6418 312.775C57.4066 312.775 57.7126 312.317 57.7126 311.935V311.4Z" fill="#333333"/>
<path d="M59.2427 308.268H59.8546V311.171L61.4608 309.643H62.2257L60.8489 310.942L62.3787 313.233H61.6138L60.39 311.4L59.8546 311.935V313.31H59.2427V308.268Z" fill="#333333"/>
<path d="M65.8194 312.087C65.6664 312.851 65.131 313.31 64.2896 313.31C63.1423 313.31 62.6069 312.546 62.6069 311.476C62.6069 310.407 63.2953 309.643 64.2896 309.643C65.5134 309.643 65.9724 310.789 65.8959 311.705H63.2188C63.2188 312.317 63.5248 312.851 64.2896 312.851C64.7486 312.851 65.131 312.622 65.2075 312.164H65.8194V312.087ZM65.2075 311.094C65.2075 310.56 64.7486 310.101 64.2132 310.101C63.6013 310.101 63.2188 310.56 63.2188 311.094H65.2075Z" fill="#333333"/>
<path d="M66.431 309.643H66.9664V310.407C67.2723 309.872 67.6548 309.567 68.2667 309.567V310.178C67.3488 310.178 66.9664 310.713 66.9664 311.629V313.233H66.3545V309.643H66.431Z" fill="#333333"/>
<path d="M71.0199 312.088C71.0199 312.622 71.4789 312.775 72.0143 312.775C72.3967 312.775 72.8556 312.699 72.8556 312.24C72.8556 311.782 72.2437 311.706 71.7083 311.553C71.0964 311.4 70.561 311.247 70.561 310.56C70.561 309.872 71.2494 309.567 71.8613 309.567C72.6262 309.567 73.2381 309.796 73.3146 310.713H72.7026C72.6262 310.254 72.2437 310.102 71.8613 310.102C71.4789 310.102 71.0964 310.178 71.0964 310.56C71.0964 310.942 71.7083 311.018 72.2437 311.171C72.8556 311.324 73.391 311.477 73.391 312.164C73.391 313.004 72.6262 313.31 71.8613 313.31C71.0964 313.31 70.408 313.004 70.3315 312.088H71.0199Z" fill="#333333"/>
<path d="M74.9203 309.644H75.6086V310.179H74.9203V312.394C74.9203 312.7 74.9967 312.7 75.3792 312.7H75.6851V313.234H75.2262C74.6143 313.234 74.3849 313.082 74.3849 312.47V310.179H73.7729V309.644H74.3849V308.575H74.9967V309.644H74.9203Z" fill="#333333"/>
<path d="M76.2205 309.643H76.7559V310.407C77.0619 309.872 77.4443 309.567 78.0562 309.567V310.178C77.1384 310.178 76.7559 310.713 76.7559 311.629V313.233H76.144V309.643H76.2205Z" fill="#333333"/>
<path d="M81.7271 313.157C81.6506 313.233 81.4976 313.233 81.3447 313.233C81.0387 313.233 80.8858 313.081 80.8858 312.699C80.5798 313.081 80.1209 313.233 79.662 313.233C79.0501 313.233 78.5146 312.928 78.5146 312.24C78.5146 311.4 79.1266 311.247 79.7384 311.171C80.3503 311.018 80.9622 311.095 80.9622 310.636C80.9622 310.102 80.5798 310.025 80.1974 310.025C79.7384 310.025 79.356 310.178 79.2795 310.713H78.6676C78.6676 309.796 79.356 309.49 80.1974 309.49C80.8093 309.49 81.4976 309.643 81.4976 310.483V312.317C81.4976 312.622 81.4977 312.699 81.6506 312.699C81.7271 312.699 81.7271 312.699 81.8036 312.699V313.157H81.7271ZM80.7328 311.4C80.5033 311.553 80.0444 311.553 79.662 311.629C79.2795 311.706 78.9736 311.858 78.9736 312.24C78.9736 312.622 79.2795 312.775 79.662 312.775C80.4268 312.775 80.7328 312.317 80.7328 311.935V311.4Z" fill="#333333"/>
<path d="M83.0272 309.644H83.7156V310.179H83.0272V312.394C83.0272 312.7 83.1037 312.7 83.4861 312.7H83.7921V313.234H83.3332C82.7212 313.234 82.4918 313.082 82.4918 312.47V310.179H81.8799V309.644H82.4918V308.575H83.1037V309.644H83.0272Z" fill="#333333"/>
<path d="M87.4635 312.087C87.3105 312.851 86.7751 313.31 85.9337 313.31C84.7864 313.31 84.251 312.546 84.251 311.476C84.251 310.407 84.9394 309.643 85.9337 309.643C87.1575 309.643 87.6164 310.789 87.5399 311.705H84.8629C84.8629 312.317 85.1688 312.851 85.9337 312.851C86.3926 312.851 86.7751 312.622 86.8515 312.164H87.4635V312.087ZM86.928 311.094C86.928 310.56 86.4691 310.101 85.9337 310.101C85.3218 310.101 84.9394 310.56 84.9394 311.094H86.928Z" fill="#333333"/>
<path d="M91.211 312.928C91.211 314.074 90.6756 314.685 89.5283 314.685C88.8399 314.685 88.075 314.379 88.075 313.615H88.6869C88.6869 314.074 89.2223 314.226 89.6048 314.226C90.3696 314.226 90.6756 313.692 90.6756 312.851V312.622C90.4461 313.081 89.9872 313.233 89.6048 313.233C88.5339 313.233 87.9985 312.393 87.9985 311.4C87.9985 310.56 88.381 309.49 89.6813 309.49C90.1402 309.49 90.5226 309.72 90.7521 310.102V309.567H91.2875V312.928H91.211ZM90.5991 311.324C90.5991 310.713 90.2931 310.025 89.6048 310.025C88.8399 310.025 88.5339 310.636 88.5339 311.324C88.5339 311.935 88.7634 312.699 89.5283 312.699C90.2931 312.699 90.5991 312.011 90.5991 311.324Z" fill="#333333"/>
<path d="M93.5048 313.692C93.1989 314.379 92.9694 314.608 92.434 314.608C92.281 314.608 92.128 314.608 92.0516 314.532V313.997C92.128 313.997 92.281 314.073 92.434 314.073C92.6635 314.073 92.8164 313.921 92.8929 313.768L93.1224 313.157L91.7456 309.643H92.434L93.5048 312.546L94.4991 309.643H95.111L93.5048 313.692Z" fill="#333333"/>
<path d="M267.88 309.72C267.803 309.032 267.344 308.727 266.656 308.727C266.121 308.727 265.585 308.956 265.585 309.567C265.585 310.178 266.35 310.255 267.191 310.407C267.956 310.56 268.798 310.866 268.798 311.859C268.798 312.928 267.803 313.31 266.885 313.31C265.815 313.31 264.82 312.775 264.82 311.553H265.432C265.432 312.393 266.121 312.699 266.885 312.699C267.497 312.699 268.109 312.546 268.109 311.782C268.109 311.095 267.344 311.018 266.503 310.789C265.738 310.636 264.897 310.407 264.897 309.491C264.897 308.498 265.815 308.039 266.656 308.039C267.65 308.039 268.415 308.498 268.492 309.567H267.88V309.72Z" fill="#333333"/>
<path d="M270.175 309.643H270.863V310.178H270.175V312.393C270.175 312.699 270.251 312.699 270.634 312.699H270.94V313.234H270.481C269.869 313.234 269.639 313.081 269.639 312.47V310.178H269.027V309.643H269.639V308.574H270.251V309.643H270.175Z" fill="#333333"/>
<path d="M271.551 309.643H272.087V310.407C272.392 309.872 272.775 309.567 273.387 309.567V310.178C272.469 310.178 272.087 310.713 272.087 311.629V313.233H271.475V309.643H271.551Z" fill="#333333"/>
<path d="M275.222 309.567C276.369 309.567 276.981 310.407 276.981 311.4C276.981 312.47 276.369 313.233 275.222 313.233C274.075 313.233 273.463 312.393 273.463 311.4C273.539 310.407 274.151 309.567 275.222 309.567ZM275.222 312.775C275.834 312.775 276.293 312.317 276.293 311.4C276.293 310.56 275.834 310.025 275.222 310.025C274.61 310.025 274.151 310.484 274.151 311.4C274.151 312.317 274.61 312.775 275.222 312.775Z" fill="#333333"/>
<path d="M277.669 309.643H278.205V310.178C278.434 309.72 278.817 309.567 279.352 309.567C280.27 309.567 280.576 310.102 280.576 310.865V313.233H279.964V310.789C279.964 310.331 279.658 310.102 279.275 310.102C278.587 310.102 278.205 310.56 278.205 311.247V313.233H277.593V309.643H277.669Z" fill="#333333"/>
<path d="M284.554 312.928C284.554 314.074 284.018 314.685 282.871 314.685C282.182 314.685 281.418 314.379 281.418 313.616H282.03C282.03 314.074 282.565 314.227 282.947 314.227C283.712 314.227 284.018 313.692 284.018 312.852V312.623C283.789 313.081 283.33 313.234 282.871 313.234C281.8 313.234 281.265 312.393 281.265 311.4C281.265 310.56 281.647 309.491 282.947 309.491C283.406 309.491 283.789 309.72 284.018 310.102V309.567H284.554V312.928ZM284.018 311.324C284.018 310.713 283.712 310.025 283.024 310.025C282.259 310.025 281.953 310.637 281.953 311.324C281.953 311.935 282.182 312.699 282.947 312.699C283.712 312.699 284.018 312.011 284.018 311.324Z" fill="#333333"/>
<path d="M288.454 312.088C288.301 312.852 287.765 313.31 286.924 313.31C285.777 313.31 285.241 312.546 285.241 311.477C285.241 310.407 285.93 309.643 286.924 309.643C288.148 309.643 288.607 310.789 288.53 311.706H285.853C285.853 312.317 286.159 312.852 286.924 312.852C287.383 312.852 287.765 312.622 287.842 312.164H288.454V312.088ZM287.918 311.095C287.918 310.56 287.459 310.102 286.924 310.102C286.312 310.102 285.93 310.56 285.93 311.095H287.918Z" fill="#333333"/>
<path d="M289.141 309.643H289.676V310.407C289.982 309.872 290.365 309.567 290.977 309.567V310.178C290.059 310.178 289.676 310.713 289.676 311.629V313.233H289.064V309.643H289.141Z" fill="#333333"/>
<path d="M293.73 312.088C293.73 312.622 294.189 312.775 294.725 312.775C295.107 312.775 295.566 312.699 295.566 312.24C295.566 311.782 294.954 311.706 294.419 311.553C293.807 311.4 293.271 311.247 293.271 310.56C293.271 309.872 293.96 309.567 294.572 309.567C295.337 309.567 295.949 309.796 296.025 310.713H295.413C295.337 310.254 294.954 310.102 294.572 310.102C294.189 310.102 293.807 310.178 293.807 310.56C293.807 310.942 294.419 311.018 294.954 311.171C295.566 311.324 296.102 311.477 296.102 312.164C296.102 313.004 295.337 313.31 294.572 313.31C293.807 313.31 293.118 313.004 293.042 312.088H293.73Z" fill="#333333"/>
<path d="M297.631 309.643H298.319V310.178H297.631V312.393C297.631 312.699 297.708 312.699 298.09 312.699H298.396V313.234H297.861C297.249 313.234 297.019 313.081 297.019 312.47V310.178H296.407V309.643H297.019V308.574H297.631V309.643Z" fill="#333333"/>
<path d="M298.931 309.643H299.466V310.407C299.772 309.872 300.155 309.567 300.767 309.567V310.178C299.849 310.178 299.466 310.713 299.466 311.629V313.233H298.854V309.643H298.931Z" fill="#333333"/>
<path d="M304.438 313.157C304.361 313.233 304.209 313.233 304.056 313.233C303.75 313.233 303.597 313.081 303.597 312.699C303.291 313.081 302.832 313.233 302.373 313.233C301.761 313.233 301.226 312.928 301.226 312.24C301.226 311.4 301.837 311.247 302.449 311.171C303.061 311.018 303.673 311.095 303.673 310.636C303.673 310.102 303.291 310.025 302.908 310.025C302.449 310.025 302.067 310.178 301.99 310.713H301.379C301.379 309.796 302.067 309.49 302.908 309.49C303.52 309.49 304.209 309.643 304.209 310.483V312.317C304.209 312.622 304.209 312.699 304.361 312.699C304.438 312.699 304.438 312.699 304.514 312.699V313.157H304.438ZM303.444 311.4C303.214 311.553 302.755 311.553 302.373 311.629C301.99 311.706 301.685 311.858 301.685 312.24C301.685 312.622 301.99 312.775 302.373 312.775C303.138 312.775 303.444 312.317 303.444 311.935V311.4Z" fill="#333333"/>
<path d="M305.737 309.643H306.426V310.178H305.737V312.393C305.737 312.699 305.814 312.699 306.196 312.699H306.502V313.234H306.043C305.431 313.234 305.202 313.081 305.202 312.47V310.178H304.59V309.643H305.202V308.574H305.814V309.643H305.737Z" fill="#333333"/>
<path d="M310.173 312.088C310.02 312.852 309.485 313.31 308.644 313.31C307.496 313.31 306.961 312.546 306.961 311.477C306.961 310.407 307.649 309.643 308.644 309.643C309.867 309.643 310.326 310.789 310.25 311.706H307.573C307.573 312.317 307.879 312.852 308.644 312.852C309.103 312.852 309.485 312.622 309.562 312.164H310.173V312.088ZM309.562 311.095C309.562 310.56 309.103 310.102 308.567 310.102C307.955 310.102 307.573 310.56 307.573 311.095H309.562Z" fill="#333333"/>
<path d="M313.921 312.928C313.921 314.074 313.385 314.685 312.238 314.685C311.55 314.685 310.785 314.379 310.785 313.615H311.397C311.397 314.074 311.932 314.226 312.315 314.226C313.079 314.226 313.385 313.692 313.385 312.851V312.622C313.156 313.081 312.697 313.233 312.238 313.233C311.167 313.233 310.632 312.393 310.632 311.4C310.632 310.56 311.014 309.49 312.315 309.49C312.774 309.49 313.156 309.72 313.385 310.102V309.567H313.921V312.928ZM313.309 311.324C313.309 310.713 313.003 310.025 312.315 310.025C311.55 310.025 311.244 310.636 311.244 311.324C311.244 311.935 311.473 312.699 312.238 312.699C313.003 312.699 313.309 312.011 313.309 311.324Z" fill="#333333"/>
<path d="M316.139 313.692C315.833 314.379 315.603 314.608 315.144 314.608C314.991 314.608 314.838 314.608 314.762 314.532V313.997C314.838 313.997 314.991 314.074 315.144 314.074C315.374 314.074 315.527 313.921 315.603 313.768L315.833 313.157L314.456 309.643H315.144L316.215 312.546L317.21 309.643H317.822L316.139 313.692Z" fill="#333333"/>
<path d="M31.5557 266.336V62.3257" stroke="#ABABAB" stroke-width="0.367"/>
<path d="M28.8789 64.3125H34.233L31.556 57.2085L28.8789 64.3125Z" fill="#888888"/>
<path d="M99.623 310.942H256.025" stroke="#ABABAB" stroke-width="0.367"/>
<path d="M253.96 308.192V313.616L261.073 310.942L253.96 308.192Z" fill="#888888"/>
<path d="M322.257 21.0044H40.7334V302.158H322.257V21.0044Z" fill="#EBEBEB"/>
<path d="M132.816 21.0044H63.6777C63.6777 163.605 179.469 279.244 322.257 279.244V210.197C217.632 210.197 132.816 125.492 132.816 21.0044Z" fill="#9BD5EF"/>
<path d="M322.257 140.462V21.0044H202.642C202.642 86.9965 256.178 140.462 322.257 140.462Z" fill="#4BAAD7"/>
<path d="M202.642 21.0044H132.815C132.815 125.492 217.632 210.197 322.257 210.197V140.462C256.178 140.462 202.642 86.9965 202.642 21.0044Z" fill="#82CBEC"/>
<path d="M157.519 339.584C157.519 339.966 157.213 340.272 156.83 340.272C156.448 340.272 156.142 339.966 156.142 339.584C156.142 339.202 156.448 338.897 156.83 338.897C157.136 338.82 157.519 339.202 157.519 339.584Z" fill="#1E1E1E"/>
<path d="M164.249 336.758C165.779 336.758 167.079 337.981 167.079 339.585C167.079 341.112 165.779 342.411 164.249 342.411C162.719 342.411 161.419 341.112 161.419 339.585C161.419 337.981 162.719 336.758 164.249 336.758Z" fill="white"/>
<path d="M166.991 340.391C167.444 338.897 166.599 337.319 165.103 336.867C163.607 336.415 162.027 337.259 161.574 338.753C161.121 340.247 161.967 341.825 163.463 342.277C164.958 342.729 166.538 341.885 166.991 340.391Z" stroke="#1E1E1E" stroke-width="0.367"/>
<path d="M164.249 338.82C164.631 338.82 164.937 339.126 164.937 339.508C164.937 339.89 164.631 340.195 164.249 340.195C163.867 340.195 163.561 339.89 163.561 339.508C163.561 339.202 163.867 338.82 164.249 338.82Z" fill="#1E1E1E"/>
<path d="M173.809 335.688C175.951 335.688 177.71 337.445 177.71 339.584C177.71 341.723 175.951 343.48 173.809 343.48C171.667 343.48 169.908 341.723 169.908 339.584C169.908 337.445 171.667 335.688 173.809 335.688Z" fill="white"/>
<path d="M173.809 335.688C175.951 335.688 177.71 337.445 177.71 339.584C177.71 341.723 175.951 343.48 173.809 343.48C171.667 343.48 169.908 341.723 169.908 339.584C169.908 337.445 171.667 335.688 173.809 335.688Z" stroke="#1E1E1E" stroke-width="0.367"/>
<path d="M173.809 338.82C174.191 338.82 174.497 339.126 174.497 339.508C174.497 339.89 174.191 340.195 173.809 340.195C173.427 340.195 173.121 339.89 173.121 339.508C173.121 339.202 173.427 338.82 173.809 338.82Z" fill="#1E1E1E"/>
<path d="M190.712 339.584C190.712 342.334 188.494 344.549 185.74 344.549C182.987 344.549 180.769 342.334 180.769 339.584C180.769 336.834 182.987 334.619 185.74 334.619C188.494 334.619 190.712 336.834 190.712 339.584Z" fill="white"/>
<path d="M185.74 344.549C188.486 344.549 190.712 342.326 190.712 339.584C190.712 336.842 188.486 334.619 185.74 334.619C182.994 334.619 180.769 336.842 180.769 339.584C180.769 342.326 182.994 344.549 185.74 344.549Z" stroke="#1E1E1E" stroke-width="0.367"/>
<path d="M186.429 339.584C186.429 339.966 186.123 340.272 185.74 340.272C185.358 340.272 185.052 339.966 185.052 339.584C185.052 339.202 185.358 338.897 185.74 338.897C186.123 338.82 186.429 339.202 186.429 339.584Z" fill="#1E1E1E"/>
<path d="M206.466 339.584C206.466 343.098 203.636 345.924 200.118 345.924C196.6 345.924 193.77 343.098 193.77 339.584C193.77 336.071 196.6 333.245 200.118 333.245C203.636 333.245 206.466 336.071 206.466 339.584Z" fill="white"/>
<path d="M206.466 339.584C206.466 343.098 203.636 345.924 200.118 345.924C196.6 345.924 193.77 343.098 193.77 339.584C193.77 336.071 196.6 333.245 200.118 333.245C203.636 333.245 206.466 336.071 206.466 339.584Z" stroke="#1E1E1E" stroke-width="0.367"/>
<path d="M200.806 339.584C200.806 339.966 200.501 340.272 200.118 340.272C199.736 340.272 199.43 339.966 199.43 339.584C199.43 339.202 199.736 338.897 200.118 338.897C200.501 338.82 200.806 339.202 200.806 339.584Z" fill="#1E1E1E"/>
<path d="M155.989 323.239H156.907L158.437 327.364L159.967 323.239H160.884V328.128H160.273V324.079L158.743 328.128H158.207L156.678 324.079V328.128H156.066V323.239H155.989Z" fill="#333333"/>
<path d="M165.015 328.128C164.938 328.204 164.785 328.204 164.632 328.204C164.326 328.204 164.173 328.051 164.173 327.669C163.867 328.051 163.408 328.204 162.95 328.204C162.338 328.204 161.802 327.898 161.802 327.211C161.802 326.371 162.414 326.218 163.026 326.141C163.638 325.989 164.25 326.065 164.25 325.607C164.25 325.072 163.867 324.996 163.485 324.996C163.026 324.996 162.644 325.148 162.567 325.683H161.955C161.955 324.766 162.644 324.461 163.485 324.461C164.097 324.461 164.785 324.614 164.785 325.454V327.287C164.785 327.593 164.785 327.669 164.938 327.669C165.015 327.669 165.015 327.669 165.091 327.669V328.128H165.015ZM164.097 326.371C163.867 326.523 163.408 326.523 163.026 326.6C162.644 326.676 162.338 326.829 162.338 327.211C162.338 327.593 162.644 327.746 163.026 327.746C163.791 327.746 164.097 327.287 164.097 326.905V326.371Z" fill="#333333"/>
<path d="M165.55 324.614H166.086V325.378C166.392 324.843 166.774 324.537 167.386 324.537V325.148C166.468 325.148 166.086 325.683 166.086 326.6V328.204H165.55V324.614Z" fill="#333333"/>
<path d="M167.92 323.239H168.532V326.141L170.139 324.614H170.903L169.527 325.912L171.056 328.204H170.292L169.068 326.371L168.532 326.905V328.28H167.92V323.239Z" fill="#333333"/>
<path d="M174.498 327.058C174.345 327.822 173.809 328.28 172.968 328.28C171.821 328.28 171.285 327.516 171.285 326.447C171.285 325.378 171.974 324.614 172.968 324.614C174.192 324.614 174.651 325.76 174.574 326.676H171.897C171.897 327.287 172.203 327.822 172.968 327.822C173.427 327.822 173.809 327.593 173.886 327.135H174.498V327.058ZM173.886 326.065C173.886 325.53 173.427 325.072 172.891 325.072C172.279 325.072 171.897 325.53 171.897 326.065H173.886Z" fill="#333333"/>
<path d="M175.951 324.615H176.639V325.15H175.951V327.365C175.951 327.67 176.027 327.67 176.409 327.67H176.715V328.205H176.256C175.645 328.205 175.415 328.052 175.415 327.441V325.15H174.803V324.615H175.415V323.545H176.027V324.615H175.951Z" fill="#333333"/>
<path d="M179.239 324.614H179.851V325.072C180.081 324.69 180.463 324.537 180.998 324.537C182.069 324.537 182.605 325.378 182.605 326.371C182.605 327.364 182.069 328.204 180.998 328.204C180.616 328.204 180.081 328.051 179.851 327.669V329.502H179.239V324.614ZM180.922 325.072C180.157 325.072 179.851 325.76 179.851 326.447C179.851 327.134 180.157 327.822 180.998 327.822C181.763 327.822 182.069 327.134 182.069 326.447C181.993 325.683 181.687 325.072 180.922 325.072Z" fill="#333333"/>
<path d="M183.293 324.614H183.828V325.378C184.134 324.843 184.517 324.537 185.128 324.537V325.148C184.211 325.148 183.828 325.683 183.828 326.6V328.204H183.216V324.614H183.293Z" fill="#333333"/>
<path d="M188.493 327.057C188.34 327.821 187.805 328.28 186.963 328.28C185.816 328.28 185.281 327.516 185.281 326.446C185.281 325.377 185.969 324.613 186.963 324.613C188.187 324.613 188.646 325.759 188.57 326.675H185.893C185.893 327.287 186.199 327.821 186.963 327.821C187.422 327.821 187.805 327.592 187.881 327.134H188.493V327.057ZM187.958 326.064C187.958 325.53 187.499 325.071 186.963 325.071C186.352 325.071 185.969 325.53 185.969 326.064H187.958Z" fill="#333333"/>
<path d="M189.564 327.058C189.564 327.593 190.023 327.746 190.558 327.746C190.941 327.746 191.4 327.669 191.4 327.211C191.4 326.753 190.788 326.676 190.252 326.523C189.64 326.371 189.105 326.218 189.105 325.53C189.105 324.843 189.793 324.537 190.405 324.537C191.17 324.537 191.782 324.767 191.858 325.683H191.247C191.17 325.225 190.788 325.072 190.405 325.072C190.023 325.072 189.64 325.148 189.64 325.53C189.64 325.912 190.252 325.989 190.788 326.141C191.4 326.294 191.935 326.447 191.935 327.135C191.935 327.975 191.17 328.28 190.405 328.28C189.64 328.28 188.952 327.975 188.875 327.058H189.564Z" fill="#333333"/>
<path d="M195.683 327.058C195.53 327.822 194.995 328.281 194.153 328.281C193.006 328.281 192.471 327.517 192.471 326.447C192.471 325.378 193.159 324.614 194.153 324.614C195.377 324.614 195.836 325.76 195.76 326.676H193.083C193.083 327.288 193.389 327.822 194.153 327.822C194.612 327.822 194.995 327.593 195.071 327.135H195.683V327.058ZM195.071 326.065C195.071 325.531 194.612 325.072 194.077 325.072C193.465 325.072 193.083 325.531 193.083 326.065H195.071Z" fill="#333333"/>
<path d="M196.294 324.614H196.829V325.148C197.059 324.69 197.441 324.537 197.976 324.537C198.894 324.537 199.2 325.072 199.2 325.836V328.204H198.588V325.76C198.588 325.301 198.282 325.072 197.9 325.072C197.212 325.072 196.829 325.53 196.829 326.218V328.204H196.217V324.614H196.294Z" fill="#333333"/>
<path d="M202.565 325.76C202.489 325.301 202.183 325.072 201.648 325.072C200.806 325.072 200.577 325.76 200.577 326.447C200.577 327.135 200.883 327.746 201.648 327.746C202.183 327.746 202.565 327.44 202.642 326.905H203.254C203.101 327.746 202.565 328.28 201.648 328.28C200.577 328.28 199.965 327.516 199.965 326.447C199.965 325.378 200.5 324.537 201.648 324.537C202.489 324.537 203.101 324.919 203.177 325.76H202.565Z" fill="#333333"/>
<path d="M206.849 327.058C206.696 327.822 206.16 328.281 205.319 328.281C204.172 328.281 203.636 327.517 203.636 326.447C203.636 325.378 204.325 324.614 205.319 324.614C206.543 324.614 207.002 325.76 206.925 326.676H204.248C204.248 327.288 204.554 327.822 205.319 327.822C205.778 327.822 206.16 327.593 206.237 327.135H206.849V327.058ZM206.313 326.065C206.313 325.531 205.854 325.072 205.319 325.072C204.707 325.072 204.325 325.531 204.325 326.065H206.313Z" fill="#333333"/>
<path d="M270.863 132.367C270.863 135.116 268.645 137.332 265.892 137.332C263.138 137.332 260.92 135.116 260.92 132.367C260.92 129.617 263.138 127.401 265.892 127.401C268.645 127.478 270.863 129.693 270.863 132.367Z" fill="white"/>
<path d="M270.714 133.563C271.345 130.894 269.69 128.22 267.018 127.59C264.346 126.96 261.668 128.612 261.037 131.281C260.406 133.95 262.061 136.624 264.733 137.254C267.405 137.884 270.083 136.232 270.714 133.563Z" stroke="#1E1E1E" stroke-width="0.367"/>
<path d="M266.58 132.366C266.58 132.748 266.274 133.054 265.892 133.054C265.509 133.054 265.203 132.748 265.203 132.366C265.203 131.984 265.509 131.679 265.892 131.679C266.274 131.679 266.58 131.984 266.58 132.366Z" fill="#1E1E1E"/>
<path d="M269.868 147.566H273.233V148.101H270.479V149.629H273.003V150.164H270.479V151.844H273.233V152.379H269.791V147.566H269.868Z" fill="#1E1E1E"/>
<path d="M275.604 152.454H274.992L273.691 148.864H274.38L275.374 151.843L276.368 148.864H276.98L275.604 152.454Z" fill="#1E1E1E"/>
<path d="M280.5 151.308C280.347 152.072 279.811 152.531 278.97 152.531C277.823 152.531 277.287 151.767 277.287 150.697C277.287 149.628 277.975 148.864 278.97 148.864C280.194 148.864 280.653 150.01 280.576 150.926H277.899C277.899 151.538 278.205 152.072 278.97 152.072C279.429 152.072 279.811 151.843 279.888 151.385H280.5V151.308ZM279.888 150.315C279.888 149.781 279.429 149.322 278.893 149.322C278.281 149.322 277.899 149.781 277.899 150.315H279.888Z" fill="#1E1E1E"/>
<path d="M281.11 148.864H281.645V149.628C281.951 149.093 282.333 148.788 282.945 148.788V149.399C282.028 149.399 281.645 149.933 281.645 150.85V152.454H281.033V148.864H281.11Z" fill="#1E1E1E"/>
<path d="M284.781 152.913C284.475 153.6 284.246 153.829 283.787 153.829C283.634 153.829 283.481 153.829 283.405 153.753V153.218C283.481 153.218 283.634 153.294 283.787 153.294C284.016 153.294 284.169 153.142 284.246 152.989L284.475 152.378L283.099 148.864H283.787L284.858 151.767L285.852 148.864H286.464L284.781 152.913Z" fill="#1E1E1E"/>
<path d="M288.375 148.788C289.523 148.788 290.135 149.628 290.135 150.621C290.135 151.69 289.523 152.454 288.375 152.454C287.228 152.454 286.616 151.614 286.616 150.621C286.693 149.628 287.228 148.788 288.375 148.788ZM288.375 151.996C288.987 151.996 289.446 151.538 289.446 150.621C289.446 149.781 288.987 149.246 288.375 149.246C287.764 149.246 287.305 149.704 287.305 150.621C287.305 151.538 287.764 151.996 288.375 151.996Z" fill="#1E1E1E"/>
<path d="M290.823 148.864H291.358V149.399C291.587 148.94 291.97 148.788 292.505 148.788C293.423 148.788 293.729 149.322 293.729 150.086V152.454H293.117V150.01C293.117 149.551 292.811 149.322 292.429 149.322C291.74 149.322 291.358 149.781 291.358 150.468V152.454H290.746V148.864H290.823Z" fill="#1E1E1E"/>
<path d="M297.707 151.308C297.554 152.072 297.018 152.531 296.177 152.531C295.03 152.531 294.494 151.767 294.494 150.697C294.494 149.628 295.183 148.864 296.177 148.864C297.401 148.864 297.86 150.01 297.783 150.926H295.106C295.106 151.538 295.412 152.072 296.177 152.072C296.636 152.072 297.018 151.843 297.095 151.385H297.707V151.308ZM297.095 150.315C297.095 149.781 296.636 149.322 296.1 149.322C295.488 149.322 295.106 149.781 295.106 150.315H297.095Z" fill="#1E1E1E"/>
<path d="M301.301 148.941C301.224 148.253 300.765 147.947 300.077 147.947C299.542 147.947 299.006 148.177 299.006 148.788C299.006 149.399 299.771 149.475 300.612 149.628C301.377 149.781 302.219 150.086 302.219 151.079C302.219 152.149 301.224 152.531 300.306 152.531C299.236 152.531 298.241 151.996 298.241 150.774H298.853C298.853 151.614 299.542 151.92 300.306 151.92C300.918 151.92 301.53 151.767 301.53 151.003C301.53 150.315 300.765 150.239 299.924 150.01C299.159 149.857 298.318 149.628 298.318 148.711C298.318 147.718 299.236 147.26 300.077 147.26C301.071 147.26 301.836 147.718 301.913 148.788H301.301V148.941Z" fill="#1E1E1E"/>
<path d="M304.36 148.788C305.507 148.788 306.119 149.628 306.119 150.621C306.119 151.69 305.507 152.454 304.36 152.454C303.212 152.454 302.601 151.614 302.601 150.621C302.601 149.628 303.212 148.788 304.36 148.788ZM304.36 151.996C304.972 151.996 305.431 151.538 305.431 150.621C305.431 149.781 304.972 149.246 304.36 149.246C303.748 149.246 303.289 149.704 303.289 150.621C303.212 151.538 303.748 151.996 304.36 151.996Z" fill="#1E1E1E"/>
<path d="M309.179 150.01C309.102 149.551 308.796 149.322 308.261 149.322C307.419 149.322 307.19 150.01 307.19 150.697C307.19 151.385 307.496 151.996 308.261 151.996C308.796 151.996 309.179 151.69 309.255 151.156H309.867C309.714 151.996 309.179 152.531 308.261 152.531C307.19 152.531 306.578 151.767 306.578 150.697C306.578 149.628 307.114 148.788 308.261 148.788C309.102 148.788 309.714 149.17 309.791 150.01H309.179Z" fill="#1E1E1E"/>
<path d="M311.09 148.254H310.479V147.566H311.09V148.254ZM310.479 148.865H311.09V152.455H310.479V148.865Z" fill="#1E1E1E"/>
<path d="M315.144 152.454C315.068 152.531 314.915 152.531 314.762 152.531C314.456 152.531 314.303 152.378 314.303 151.996C313.997 152.378 313.538 152.531 313.079 152.531C312.467 152.531 311.932 152.225 311.932 151.538C311.932 150.697 312.544 150.544 313.155 150.468C313.767 150.315 314.379 150.392 314.379 149.933C314.379 149.399 313.997 149.322 313.614 149.322C313.155 149.322 312.773 149.475 312.697 150.01H312.085C312.085 149.093 312.773 148.788 313.614 148.788C314.226 148.788 314.915 148.94 314.915 149.781V151.614C314.915 151.919 314.915 151.996 315.068 151.996C315.144 151.996 315.144 151.996 315.221 151.996V152.454H315.144ZM314.15 150.621C313.92 150.774 313.461 150.774 313.079 150.85C312.697 150.926 312.391 151.079 312.391 151.461C312.391 151.843 312.697 151.996 313.079 151.996C313.844 151.996 314.15 151.538 314.15 151.156V150.621Z" fill="#1E1E1E"/>
<path d="M315.679 147.566H316.291V152.455H315.679V147.566Z" fill="#1E1E1E"/>
<path d="M215.95 137.713C215.95 141.226 213.12 144.052 209.602 144.052C206.084 144.052 203.254 141.226 203.254 137.713C203.254 134.199 206.084 131.373 209.602 131.373C213.12 131.373 215.95 134.199 215.95 137.713Z" fill="white"/>
<path d="M215.95 137.713C215.95 141.226 213.12 144.052 209.602 144.052C206.084 144.052 203.254 141.226 203.254 137.713C203.254 134.199 206.084 131.373 209.602 131.373C213.12 131.373 215.95 134.199 215.95 137.713Z" stroke="#1E1E1E" stroke-width="0.367"/>
<path d="M210.29 137.713C210.29 138.095 209.984 138.4 209.601 138.4C209.219 138.4 208.913 138.095 208.913 137.713C208.913 137.331 209.219 137.025 209.601 137.025C209.984 137.025 210.29 137.331 210.29 137.713Z" fill="#1E1E1E"/>
<path d="M213.578 160.398H214.267V162.537H216.867V160.398H217.556V165.287H216.791V163.071H214.19V165.287H213.502V160.398H213.578Z" fill="#1E1E1E"/>
<path d="M221.457 164.14C221.304 164.904 220.768 165.363 219.927 165.363C218.78 165.363 218.244 164.599 218.244 163.529C218.244 162.46 218.933 161.696 219.927 161.696C221.151 161.696 221.61 162.842 221.533 163.758H218.856C218.856 164.37 219.162 164.904 219.927 164.904C220.386 164.904 220.768 164.675 220.845 164.217H221.457V164.14ZM220.921 163.147C220.921 162.613 220.462 162.154 219.927 162.154C219.315 162.154 218.933 162.613 218.933 163.147H220.921Z" fill="#1E1E1E"/>
<path d="M225.281 165.286C225.204 165.363 225.051 165.363 224.898 165.363C224.592 165.363 224.439 165.21 224.439 164.828C224.134 165.21 223.675 165.363 223.216 165.363C222.604 165.363 222.068 165.057 222.068 164.37C222.068 163.529 222.68 163.377 223.292 163.3C223.904 163.147 224.516 163.224 224.516 162.765C224.516 162.231 224.134 162.154 223.751 162.154C223.292 162.154 222.91 162.307 222.833 162.842H222.221C222.221 161.925 222.91 161.62 223.751 161.62C224.363 161.62 225.051 161.772 225.051 162.613V164.446C225.051 164.751 225.051 164.828 225.204 164.828C225.281 164.828 225.281 164.828 225.357 164.828V165.286H225.281ZM224.363 163.453C224.134 163.606 223.675 163.606 223.292 163.682C222.91 163.758 222.604 163.911 222.604 164.293C222.604 164.675 222.91 164.828 223.292 164.828C224.057 164.828 224.363 164.37 224.363 163.988V163.453Z" fill="#1E1E1E"/>
<path d="M225.816 161.772H226.351V162.536C226.657 162.001 227.04 161.696 227.651 161.696V162.307C226.734 162.307 226.351 162.842 226.351 163.758V165.362H225.739V161.772H225.816Z" fill="#1E1E1E"/>
<path d="M228.492 164.217C228.492 164.751 228.951 164.904 229.486 164.904C229.869 164.904 230.328 164.828 230.328 164.369C230.328 163.911 229.716 163.835 229.18 163.682C228.569 163.529 228.033 163.376 228.033 162.689C228.033 162.001 228.722 161.696 229.333 161.696C230.098 161.696 230.71 161.925 230.787 162.842H230.175C230.098 162.383 229.716 162.231 229.333 162.231C228.951 162.231 228.569 162.307 228.569 162.689C228.569 163.071 229.18 163.147 229.716 163.3C230.328 163.453 230.863 163.605 230.863 164.293C230.863 165.133 230.098 165.439 229.333 165.439C228.569 165.439 227.88 165.133 227.804 164.217H228.492Z" fill="#1E1E1E"/>
<path d="M234.763 165.286C234.687 165.362 234.534 165.362 234.381 165.362C234.075 165.362 233.922 165.21 233.922 164.828C233.616 165.21 233.157 165.362 232.698 165.362C232.086 165.362 231.551 165.057 231.551 164.369C231.551 163.529 232.163 163.376 232.775 163.3C233.386 163.147 233.998 163.224 233.998 162.765C233.998 162.23 233.616 162.154 233.233 162.154C232.775 162.154 232.392 162.307 232.316 162.842H231.704C231.704 161.925 232.392 161.619 233.233 161.619C233.845 161.619 234.534 161.772 234.534 162.612V164.446C234.534 164.751 234.534 164.828 234.687 164.828C234.763 164.828 234.763 164.828 234.84 164.828V165.286H234.763ZM233.769 163.453C233.539 163.605 233.081 163.605 232.698 163.682C232.316 163.758 232.01 163.911 232.01 164.293C232.01 164.675 232.316 164.828 232.698 164.828C233.463 164.828 233.769 164.369 233.769 163.987V163.453Z" fill="#1E1E1E"/>
<path d="M236.676 165.744C236.37 166.432 236.14 166.661 235.682 166.661C235.529 166.661 235.376 166.661 235.299 166.585V166.05C235.376 166.05 235.529 166.126 235.682 166.126C235.911 166.126 236.064 165.973 236.14 165.821L236.37 165.21L234.993 161.696H235.682L236.752 164.598L237.747 161.696H238.359L236.676 165.744Z" fill="#1E1E1E"/>
<path d="M243.559 161.849C243.482 161.161 243.023 160.856 242.335 160.856C241.799 160.856 241.264 161.085 241.264 161.696C241.264 162.307 242.029 162.383 242.87 162.536C243.635 162.689 244.476 162.994 244.476 163.988C244.476 165.057 243.482 165.439 242.564 165.439C241.493 165.439 240.499 164.904 240.499 163.682H241.111C241.111 164.522 241.799 164.828 242.564 164.828C243.176 164.828 243.788 164.675 243.788 163.911C243.788 163.224 243.023 163.147 242.182 162.918C241.417 162.765 240.576 162.536 240.576 161.62C240.576 160.627 241.493 160.168 242.335 160.168C243.329 160.168 244.094 160.627 244.17 161.696H243.559V161.849Z" fill="#1E1E1E"/>
<path d="M246.465 165.744C246.159 166.432 245.93 166.661 245.471 166.661C245.318 166.661 245.165 166.661 245.088 166.585V166.05C245.165 166.05 245.318 166.126 245.471 166.126C245.7 166.126 245.853 165.973 245.93 165.821L246.159 165.21L244.782 161.696H245.471L246.541 164.598L247.536 161.696H248.148L246.465 165.744Z" fill="#1E1E1E"/>
<path d="M248.912 164.217C248.912 164.751 249.371 164.904 249.906 164.904C250.289 164.904 250.748 164.828 250.748 164.369C250.748 163.911 250.136 163.835 249.6 163.682C248.988 163.529 248.453 163.376 248.453 162.689C248.453 162.001 249.141 161.696 249.753 161.696C250.518 161.696 251.13 161.925 251.207 162.842H250.595C250.518 162.383 250.136 162.231 249.753 162.231C249.371 162.231 248.989 162.307 248.989 162.689C248.989 163.071 249.6 163.147 250.136 163.3C250.748 163.453 251.283 163.605 251.283 164.293C251.283 165.133 250.518 165.439 249.753 165.439C248.989 165.439 248.3 165.133 248.224 164.217H248.912Z" fill="#1E1E1E"/>
<path d="M252.813 161.772H253.502V162.307H252.813V164.522C252.813 164.828 252.89 164.828 253.272 164.828H253.578V165.362H253.119C252.507 165.362 252.278 165.21 252.278 164.599V162.307H251.666V161.772H252.278V160.703H252.89V161.772H252.813Z" fill="#1E1E1E"/>
<path d="M257.172 164.14C257.019 164.904 256.484 165.362 255.643 165.362C254.495 165.362 253.96 164.598 253.96 163.529C253.96 162.46 254.648 161.696 255.643 161.696C256.866 161.696 257.325 162.842 257.249 163.758H254.572C254.572 164.369 254.878 164.904 255.643 164.904C256.102 164.904 256.484 164.675 256.561 164.217H257.172V164.14ZM256.637 163.147C256.637 162.612 256.178 162.154 255.643 162.154C255.031 162.154 254.648 162.612 254.648 163.147H256.637Z" fill="#1E1E1E"/>
<path d="M257.861 161.772H258.396V162.307C258.626 161.925 259.084 161.696 259.543 161.696C260.002 161.696 260.385 161.849 260.538 162.307C260.767 161.925 261.226 161.696 261.685 161.696C262.373 161.696 262.832 162.001 262.832 162.765V165.362H262.22V162.994C262.22 162.536 262.067 162.231 261.532 162.231C260.997 162.231 260.614 162.612 260.614 163.147V165.362H260.002V162.994C260.002 162.536 259.849 162.231 259.314 162.231C258.626 162.231 258.396 162.842 258.396 163.147V165.362H257.784V161.772H257.861Z" fill="#1E1E1E"/>
<path d="M264.056 164.217C264.056 164.751 264.515 164.904 265.05 164.904C265.432 164.904 265.891 164.828 265.891 164.369C265.891 163.911 265.279 163.835 264.744 163.682C264.132 163.529 263.597 163.376 263.597 162.689C263.597 162.001 264.285 161.696 264.897 161.696C265.662 161.696 266.274 161.925 266.35 162.842H265.738C265.662 162.383 265.279 162.231 264.897 162.231C264.514 162.231 264.132 162.307 264.132 162.689C264.132 163.071 264.744 163.147 265.279 163.3C265.891 163.453 266.427 163.605 266.427 164.293C266.427 165.133 265.662 165.439 264.897 165.439C264.132 165.439 263.444 165.133 263.367 164.217H264.056Z" fill="#1E1E1E"/>
<path d="M190.864 117.167C193.006 117.167 194.765 118.923 194.765 121.062C194.765 123.201 193.006 124.958 190.864 124.958C188.723 124.958 186.963 123.201 186.963 121.062C186.963 118.923 188.723 117.167 190.864 117.167Z" fill="white"/>
<path d="M190.864 117.167C193.006 117.167 194.765 118.923 194.765 121.062C194.765 123.201 193.006 124.958 190.864 124.958C188.723 124.958 186.963 123.201 186.963 121.062C186.963 118.923 188.723 117.167 190.864 117.167Z" stroke="#1E1E1E" stroke-width="0.367"/>
<path d="M190.864 120.298C191.247 120.298 191.553 120.604 191.553 120.986C191.553 121.368 191.247 121.673 190.864 121.673C190.482 121.673 190.176 121.368 190.176 120.986C190.176 120.604 190.482 120.298 190.864 120.298Z" fill="#1E1E1E"/>
<path d="M197.671 118.388H198.359V120.527H200.96V118.388H201.648V123.277H200.96V121.062H198.359V123.277H197.671V118.388Z" fill="#1E1E1E"/>
<path d="M204.019 119.687C205.167 119.687 205.779 120.527 205.779 121.52C205.779 122.59 205.167 123.354 204.019 123.354C202.872 123.354 202.26 122.513 202.26 121.52C202.337 120.451 202.949 119.687 204.019 119.687ZM204.019 122.895C204.631 122.895 205.09 122.437 205.09 121.52C205.09 120.68 204.631 120.145 204.019 120.145C203.408 120.145 202.949 120.604 202.949 121.52C202.949 122.361 203.408 122.895 204.019 122.895Z" fill="#1E1E1E"/>
<path d="M207.997 119.687C209.144 119.687 209.756 120.527 209.756 121.52C209.756 122.59 209.144 123.354 207.997 123.354C206.849 123.354 206.237 122.513 206.237 121.52C206.314 120.451 206.849 119.687 207.997 119.687ZM207.997 122.895C208.608 122.895 209.067 122.437 209.067 121.52C209.067 120.68 208.608 120.145 207.997 120.145C207.385 120.145 206.926 120.604 206.926 121.52C206.926 122.361 207.385 122.895 207.997 122.895Z" fill="#1E1E1E"/>
<path d="M211.208 119.764H211.896V120.299H211.208V122.514C211.208 122.82 211.284 122.82 211.667 122.82H211.973V123.354H211.514C210.902 123.354 210.672 123.202 210.672 122.591V120.299H210.061V119.764H210.672V118.695H211.284V119.764H211.208Z" fill="#1E1E1E"/>
<path d="M212.967 122.208C212.967 122.742 213.426 122.895 213.962 122.895C214.344 122.895 214.803 122.819 214.803 122.361C214.803 121.902 214.191 121.826 213.656 121.673C213.044 121.52 212.508 121.368 212.508 120.68C212.508 119.993 213.197 119.687 213.809 119.687C214.573 119.687 215.185 119.916 215.262 120.833H214.65C214.573 120.374 214.191 120.222 213.809 120.222C213.426 120.222 213.044 120.298 213.044 120.68C213.044 121.062 213.656 121.138 214.191 121.291C214.803 121.444 215.338 121.597 215.338 122.284C215.338 123.124 214.573 123.43 213.809 123.43C213.044 123.43 212.355 123.124 212.279 122.208H212.967Z" fill="#1E1E1E"/>
<path d="M219.009 123.277H218.474V122.742C218.244 123.201 217.862 123.354 217.326 123.354C216.408 123.354 216.103 122.819 216.103 122.055V119.687H216.714V122.131C216.714 122.59 217.02 122.819 217.403 122.819C218.091 122.819 218.474 122.361 218.474 121.673V119.687H219.086V123.277H219.009Z" fill="#1E1E1E"/>
<path d="M220.462 119.076H219.851V118.388H220.462V119.076ZM219.927 119.763H220.539V123.354H219.927V119.763Z" fill="#1E1E1E"/>
<path d="M222.222 119.764H222.91V120.299H222.222V122.514C222.222 122.82 222.298 122.82 222.68 122.82H222.986V123.354H222.527C221.916 123.354 221.686 123.202 221.686 122.591V120.299H221.074V119.764H221.686V118.695H222.298V119.764H222.222Z" fill="#1E1E1E"/>
<path d="M226.581 122.131C226.428 122.895 225.892 123.354 225.051 123.354C223.904 123.354 223.368 122.59 223.368 121.52C223.368 120.451 224.057 119.687 225.051 119.687C226.275 119.687 226.734 120.833 226.657 121.749H223.98C223.98 122.361 224.286 122.895 225.051 122.895C225.51 122.895 225.892 122.666 225.969 122.208H226.581V122.131ZM226.045 121.138C226.045 120.604 225.586 120.145 225.051 120.145C224.439 120.145 224.057 120.604 224.057 121.138H226.045Z" fill="#1E1E1E"/>
<path d="M172.05 161.467C174.192 161.467 175.951 163.223 175.951 165.362C175.951 167.501 174.192 169.258 172.05 169.258C169.909 169.258 168.149 167.501 168.149 165.362C168.226 163.147 169.909 161.467 172.05 161.467Z" fill="white"/>
<path d="M172.05 161.467C174.192 161.467 175.951 163.223 175.951 165.362C175.951 167.501 174.192 169.258 172.05 169.258C169.909 169.258 168.149 167.501 168.149 165.362C168.226 163.147 169.909 161.467 172.05 161.467Z" stroke="#1E1E1E" stroke-width="0.367"/>
<path d="M172.05 164.598C172.432 164.598 172.738 164.904 172.738 165.286C172.738 165.668 172.432 165.973 172.05 165.973C171.667 165.973 171.361 165.668 171.361 165.286C171.361 164.904 171.667 164.598 172.05 164.598Z" fill="#1E1E1E"/>
<path d="M129.298 162.612H131.439C132.434 162.612 132.969 163.147 132.969 164.064C132.969 164.98 132.434 165.515 131.439 165.515H129.91V167.501H129.221V162.612H129.298ZM129.986 164.98H131.286C132.051 164.98 132.357 164.675 132.357 164.064C132.357 163.453 132.051 163.147 131.286 163.147H129.986V164.98Z" fill="#1E1E1E"/>
<path d="M135.187 163.911C136.334 163.911 136.946 164.751 136.946 165.744C136.946 166.814 136.334 167.577 135.187 167.577C134.04 167.577 133.428 166.737 133.428 165.744C133.504 164.751 134.04 163.911 135.187 163.911ZM135.187 167.119C135.799 167.119 136.258 166.661 136.258 165.744C136.258 164.904 135.799 164.369 135.187 164.369C134.575 164.369 134.116 164.828 134.116 165.744C134.116 166.661 134.575 167.119 135.187 167.119Z" fill="#1E1E1E"/>
<path d="M137.941 166.432C137.941 166.966 138.4 167.119 138.935 167.119C139.318 167.119 139.777 167.043 139.777 166.584C139.777 166.126 139.165 166.05 138.629 165.897C138.017 165.744 137.482 165.591 137.482 164.904C137.482 164.216 138.17 163.911 138.782 163.911C139.547 163.911 140.159 164.14 140.235 165.057H139.624C139.547 164.598 139.165 164.446 138.782 164.446C138.4 164.446 138.017 164.522 138.017 164.904C138.017 165.286 138.629 165.362 139.165 165.515C139.777 165.668 140.312 165.821 140.312 166.508C140.312 167.348 139.547 167.654 138.782 167.654C138.017 167.654 137.329 167.348 137.252 166.432H137.941Z" fill="#1E1E1E"/>
<path d="M141.841 163.988H142.529V164.523H141.841V166.738C141.841 167.044 141.917 167.044 142.3 167.044H142.606V167.578H142.147C141.535 167.578 141.305 167.426 141.305 166.814V164.523H140.693V163.988H141.305V162.919H141.917V163.988H141.841Z" fill="#1E1E1E"/>
<path d="M143.294 162.612H145.053C145.512 162.612 146.047 162.612 146.353 162.765C146.659 162.994 146.965 163.3 146.965 163.758C146.965 164.293 146.659 164.675 146.2 164.828C146.812 164.98 147.118 165.439 147.118 165.973C147.118 166.661 146.583 167.348 145.588 167.348H143.217V162.612H143.294ZM143.982 164.751H145.282C146.047 164.751 146.353 164.446 146.353 163.987C146.353 163.3 145.894 163.223 145.282 163.223H143.982V164.751ZM143.982 167.043H145.588C146.124 167.043 146.506 166.737 146.506 166.126C146.506 165.515 145.971 165.286 145.435 165.286H143.906V167.043H143.982Z" fill="#1E1E1E"/>
<path d="M150.942 166.431C150.789 167.195 150.254 167.654 149.412 167.654C148.265 167.654 147.729 166.89 147.729 165.82C147.729 164.751 148.418 163.987 149.412 163.987C150.636 163.987 151.095 165.133 151.018 166.049H148.341C148.341 166.661 148.647 167.195 149.412 167.195C149.871 167.195 150.254 166.966 150.33 166.508H150.942V166.431ZM150.407 165.438C150.407 164.904 149.948 164.445 149.412 164.445C148.8 164.445 148.418 164.904 148.418 165.438H150.407Z" fill="#1E1E1E"/>
<path d="M153.006 168.036C152.701 168.723 152.471 168.952 152.012 168.952C151.859 168.952 151.706 168.952 151.63 168.876V168.341C151.706 168.341 151.859 168.417 152.012 168.417C152.242 168.417 152.395 168.265 152.471 168.112L152.701 167.501L151.324 163.987H152.012L153.083 166.89L154.077 163.987H154.689L153.006 168.036Z" fill="#1E1E1E"/>
<path d="M156.601 163.911C157.749 163.911 158.361 164.751 158.361 165.744C158.361 166.814 157.749 167.577 156.601 167.577C155.454 167.577 154.842 166.737 154.842 165.744C154.919 164.751 155.454 163.911 156.601 163.911ZM156.601 167.119C157.213 167.119 157.672 166.661 157.672 165.744C157.672 164.904 157.213 164.369 156.601 164.369C155.99 164.369 155.531 164.828 155.531 165.744C155.531 166.661 155.99 167.119 156.601 167.119Z" fill="#1E1E1E"/>
<path d="M159.049 163.987H159.584V164.522C159.814 164.064 160.196 163.911 160.731 163.911C161.649 163.911 161.955 164.446 161.955 165.209V167.577H161.343V165.133C161.343 164.675 161.037 164.446 160.655 164.446C159.967 164.446 159.584 164.904 159.584 165.591V167.577H158.972V163.987H159.049Z" fill="#1E1E1E"/>
<path d="M166.009 167.578H165.397V167.119C165.167 167.501 164.785 167.654 164.249 167.654C163.178 167.654 162.643 166.814 162.643 165.821C162.643 164.828 163.178 163.988 164.249 163.988C164.632 163.988 165.167 164.14 165.397 164.522V162.689H166.009V167.578ZM164.402 167.119C165.167 167.119 165.473 166.432 165.473 165.744C165.473 165.057 165.167 164.369 164.326 164.369C163.561 164.369 163.255 165.057 163.255 165.744C163.255 166.508 163.637 167.119 164.402 167.119Z" fill="#1E1E1E"/>
<path d="M308.339 74.2415C308.339 76.9914 306.121 79.2066 303.367 79.2066C300.614 79.2066 298.396 76.9914 298.396 74.2415C298.396 71.4916 300.614 69.2764 303.367 69.2764C306.197 69.3528 308.339 71.568 308.339 74.2415Z" fill="white"/>
<path d="M308.339 74.2415C308.339 76.9914 306.121 79.2066 303.367 79.2066C300.614 79.2066 298.396 76.9914 298.396 74.2415C298.396 71.4916 300.614 69.2764 303.367 69.2764C306.197 69.3528 308.339 71.568 308.339 74.2415Z" stroke="#1E1E1E" stroke-width="0.367"/>
<path d="M304.132 74.2412C304.132 74.6231 303.826 74.9287 303.443 74.9287C303.061 74.9287 302.755 74.6231 302.755 74.2412C302.755 73.8593 303.061 73.5537 303.443 73.5537C303.826 73.5537 304.132 73.8593 304.132 74.2412Z" fill="#1E1E1E"/>
<path d="M242.336 73.0955C242.259 72.4081 241.8 72.1025 241.112 72.1025C240.577 72.1025 240.041 72.3317 240.041 72.9428C240.041 73.5539 240.806 73.6303 241.647 73.783C242.412 73.9358 243.254 74.2413 243.254 75.2344C243.254 76.3038 242.259 76.6857 241.342 76.6857C240.271 76.6857 239.276 76.151 239.276 74.9288H239.888C239.888 75.7691 240.577 76.0746 241.342 76.0746C241.953 76.0746 242.565 75.9219 242.565 75.158C242.565 74.4705 241.8 74.3941 240.959 74.165C240.118 73.9358 239.353 73.783 239.353 72.8664C239.353 71.8734 240.271 71.415 241.112 71.415C242.106 71.415 242.871 71.8734 242.948 72.9428H242.336V73.0955Z" fill="#1E1E1E"/>
<path d="M246.848 75.4634C246.695 76.2273 246.16 76.6856 245.318 76.6856C244.171 76.6856 243.636 75.9217 243.636 74.8523C243.636 73.7829 244.324 73.019 245.318 73.019C246.542 73.019 247.001 74.1648 246.925 75.0815H244.248C244.248 75.6926 244.554 76.2273 245.318 76.2273C245.777 76.2273 246.16 75.9981 246.236 75.5398H246.848V75.4634ZM246.313 74.4704C246.313 73.9357 245.854 73.4774 245.318 73.4774C244.707 73.4774 244.324 73.9357 244.324 74.4704H246.313Z" fill="#1E1E1E"/>
<path d="M248.149 72.4089H247.537V71.7214H248.149V72.4089ZM247.537 73.02H248.149V76.6102H247.537V73.02Z" fill="#1E1E1E"/>
<path d="M249.373 75.4636C249.373 75.9983 249.832 76.1511 250.367 76.1511C250.75 76.1511 251.209 76.0747 251.209 75.6164C251.209 75.1581 250.597 75.0817 250.061 74.9289C249.449 74.7762 248.914 74.6234 248.914 73.9359C248.914 73.2484 249.602 72.9429 250.214 72.9429C250.979 72.9429 251.591 73.172 251.668 74.0887H251.056C250.979 73.6304 250.597 73.4776 250.214 73.4776C249.832 73.4776 249.449 73.554 249.449 73.9359C249.449 74.3178 250.061 74.3942 250.597 74.547C251.209 74.6998 251.744 74.8525 251.744 75.54C251.744 76.3803 250.979 76.6858 250.214 76.6858C249.449 76.6858 248.761 76.3803 248.685 75.4636H249.373Z" fill="#1E1E1E"/>
<path d="M252.507 73.019H253.043V73.5537C253.272 73.1718 253.731 72.9426 254.19 72.9426C254.649 72.9426 255.031 73.0954 255.184 73.5537C255.414 73.1718 255.873 72.9426 256.332 72.9426C257.02 72.9426 257.479 73.2482 257.479 74.012V76.6092H256.867V74.2412C256.867 73.7829 256.714 73.4773 256.179 73.4773C255.643 73.4773 255.261 73.8593 255.261 74.394V76.6092H254.649V74.2412C254.649 73.7829 254.496 73.4773 253.96 73.4773C253.272 73.4773 253.043 74.0884 253.043 74.394V76.6092H252.431V73.019H252.507Z" fill="#1E1E1E"/>
<path d="M259.008 72.4089H258.396V71.7214H259.008V72.4089ZM258.396 73.02H259.008V76.6102H258.396V73.02Z" fill="#1E1E1E"/>
<path d="M262.297 74.1648C262.22 73.7065 261.914 73.4773 261.379 73.4773C260.538 73.4773 260.308 74.1648 260.308 74.8523C260.308 75.5398 260.614 76.1509 261.379 76.1509C261.914 76.1509 262.297 75.8453 262.373 75.3106H262.985C262.832 76.1509 262.297 76.6856 261.379 76.6856C260.308 76.6856 259.696 75.9217 259.696 74.8523C259.696 73.7829 260.232 72.9426 261.379 72.9426C262.22 72.9426 262.832 73.3246 262.909 74.1648H262.297Z" fill="#1E1E1E"/>
<path d="M265.586 71.7214H266.274V76.0755H268.875V76.6102H265.586V71.7214Z" fill="#1E1E1E"/>
<path d="M269.945 72.4089H269.333V71.7214H269.945V72.4089ZM269.333 73.02H269.945V76.6102H269.333V73.02Z" fill="#1E1E1E"/>
<path d="M272.469 76.6092H271.857L270.557 73.019H271.245L272.239 75.9981L273.234 73.019H273.846L272.469 76.6092Z" fill="#1E1E1E"/>
<path d="M277.364 75.4634C277.211 76.2273 276.675 76.6856 275.834 76.6856C274.687 76.6856 274.151 75.9217 274.151 74.8523C274.151 73.7829 274.84 73.019 275.834 73.019C277.058 73.019 277.517 74.1648 277.44 75.0815H274.763C274.763 75.6926 275.069 76.2273 275.834 76.2273C276.293 76.2273 276.675 75.9981 276.752 75.5398H277.364V75.4634ZM276.752 74.4704C276.752 73.9357 276.293 73.4774 275.758 73.4774C275.146 73.4774 274.763 73.9357 274.763 74.4704H276.752Z" fill="#1E1E1E"/>
<path d="M280.958 73.0955C280.881 72.4081 280.423 72.1025 279.734 72.1025C279.199 72.1025 278.663 72.3317 278.663 72.9428C278.663 73.5539 279.428 73.6303 280.27 73.783C281.034 73.9358 281.876 74.2413 281.876 75.2344C281.876 76.3038 280.881 76.6857 279.964 76.6857C278.893 76.6857 277.898 76.151 277.898 74.9288H278.51C278.51 75.7691 279.199 76.0746 279.964 76.0746C280.576 76.0746 281.187 75.9219 281.187 75.158C281.187 74.4705 280.423 74.3941 279.581 74.165C278.74 73.9358 277.975 73.783 277.975 72.8664C277.975 71.8734 278.893 71.415 279.734 71.415C280.728 71.415 281.493 71.8734 281.57 72.9428H280.958V73.0955Z" fill="#1E1E1E"/>
<path d="M284.017 72.9426C285.164 72.9426 285.776 73.7829 285.776 74.7759C285.776 75.8453 285.164 76.6092 284.017 76.6092C282.87 76.6092 282.258 75.7689 282.258 74.7759C282.258 73.7829 282.87 72.9426 284.017 72.9426ZM284.017 76.1509C284.629 76.1509 285.088 75.6926 285.088 74.7759C285.088 73.9357 284.629 73.4009 284.017 73.4009C283.405 73.4009 282.946 73.8593 282.946 74.7759C282.87 75.6926 283.405 76.1509 284.017 76.1509Z" fill="#1E1E1E"/>
<path d="M288.836 74.1648C288.759 73.7065 288.453 73.4773 287.918 73.4773C287.077 73.4773 286.847 74.1648 286.847 74.8523C286.847 75.5398 287.153 76.1509 287.918 76.1509C288.453 76.1509 288.836 75.8453 288.912 75.3106H289.524C289.371 76.1509 288.836 76.6856 287.918 76.6856C286.847 76.6856 286.235 75.9217 286.235 74.8523C286.235 73.7829 286.771 72.9426 287.918 72.9426C288.759 72.9426 289.371 73.3246 289.448 74.1648H288.836Z" fill="#1E1E1E"/>
<path d="M290.748 72.4089H290.136V71.7214H290.748V72.4089ZM290.136 73.02H290.748V76.6102H290.136V73.02Z" fill="#1E1E1E"/>
<path d="M294.801 76.6092C294.725 76.6856 294.572 76.6856 294.419 76.6856C294.113 76.6856 293.96 76.5328 293.96 76.1509C293.654 76.5328 293.195 76.6856 292.736 76.6856C292.124 76.6856 291.589 76.38 291.589 75.6925C291.589 74.8523 292.201 74.6995 292.813 74.6231C293.425 74.4704 294.036 74.5467 294.036 74.0884C294.036 73.5537 293.654 73.4773 293.272 73.4773C292.813 73.4773 292.43 73.6301 292.354 74.1648H291.742C291.742 73.2482 292.43 72.9426 293.272 72.9426C293.883 72.9426 294.572 73.0954 294.572 73.9357V75.7689C294.572 76.0745 294.572 76.1509 294.725 76.1509C294.801 76.1509 294.801 76.1509 294.878 76.1509V76.6092H294.801ZM293.883 74.7759C293.654 74.9287 293.195 74.9287 292.813 75.0051C292.43 75.0815 292.124 75.2342 292.124 75.6162C292.124 75.9981 292.43 76.1509 292.813 76.1509C293.578 76.1509 293.883 75.6925 293.883 75.3106V74.7759Z" fill="#1E1E1E"/>
<path d="M295.413 71.7214H296.025V76.6102H295.413V71.7214Z" fill="#1E1E1E"/>
<path d="M190.864 137.254C193.006 137.254 194.765 139.011 194.765 141.15C194.765 143.289 193.006 145.046 190.864 145.046C188.723 145.046 186.963 143.289 186.963 141.15C186.963 139.011 188.723 137.254 190.864 137.254Z" fill="white"/>
<path d="M190.864 137.254C193.006 137.254 194.765 139.011 194.765 141.15C194.765 143.289 193.006 145.046 190.864 145.046C188.723 145.046 186.963 143.289 186.963 141.15C186.963 139.011 188.723 137.254 190.864 137.254Z" stroke="#1E1E1E" stroke-width="0.367"/>
<path d="M190.864 140.462C191.247 140.462 191.553 140.768 191.553 141.15C191.553 141.532 191.247 141.837 190.864 141.837C190.482 141.837 190.176 141.532 190.176 141.15C190.099 140.768 190.482 140.462 190.864 140.462Z" fill="#1E1E1E"/>
<path d="M157.901 139.928C157.825 139.24 157.366 138.935 156.677 138.935C156.142 138.935 155.607 139.164 155.607 139.775C155.607 140.386 156.372 140.463 157.213 140.615C157.978 140.768 158.819 141.074 158.819 142.067C158.819 143.136 157.825 143.518 156.907 143.518C155.836 143.518 154.842 142.983 154.842 141.761H155.454C155.454 142.601 156.142 142.907 156.907 142.907C157.519 142.907 158.131 142.754 158.131 141.99C158.131 141.303 157.366 141.226 156.525 140.997C155.683 140.768 154.918 140.615 154.918 139.699C154.918 138.706 155.836 138.247 156.677 138.247C157.672 138.247 158.437 138.706 158.513 139.775H157.901V139.928Z" fill="#1E1E1E"/>
<path d="M160.961 139.775C162.108 139.775 162.72 140.615 162.72 141.608C162.72 142.678 162.108 143.442 160.961 143.442C159.814 143.442 159.202 142.601 159.202 141.608C159.278 140.615 159.814 139.775 160.961 139.775ZM160.961 142.983C161.573 142.983 162.032 142.525 162.032 141.608C162.032 140.768 161.573 140.233 160.961 140.233C160.349 140.233 159.89 140.692 159.89 141.608C159.89 142.525 160.349 142.983 160.961 142.983Z" fill="#1E1E1E"/>
<path d="M165.779 140.997C165.703 140.539 165.397 140.31 164.861 140.31C164.02 140.31 163.791 140.997 163.791 141.685C163.791 142.372 164.097 142.983 164.861 142.983C165.397 142.983 165.779 142.678 165.856 142.143H166.468C166.315 142.983 165.779 143.518 164.861 143.518C163.791 143.518 163.179 142.754 163.179 141.685C163.179 140.615 163.714 139.775 164.861 139.775C165.703 139.775 166.315 140.157 166.391 140.997H165.779Z" fill="#1E1E1E"/>
<path d="M167.691 139.241H167.079V138.554H167.691V139.241ZM167.155 139.852H167.767V143.442H167.155V139.852Z" fill="#1E1E1E"/>
<path d="M171.744 143.365C171.668 143.441 171.515 143.441 171.362 143.441C171.056 143.441 170.903 143.289 170.903 142.907C170.597 143.289 170.138 143.441 169.679 143.441C169.067 143.441 168.532 143.136 168.532 142.448C168.532 141.608 169.144 141.455 169.756 141.379C170.367 141.226 170.979 141.303 170.979 140.844C170.979 140.31 170.597 140.233 170.214 140.233C169.756 140.233 169.373 140.386 169.297 140.921H168.685C168.685 140.004 169.373 139.698 170.214 139.698C170.826 139.698 171.515 139.851 171.515 140.692V142.525C171.515 142.83 171.515 142.907 171.668 142.907C171.744 142.907 171.744 142.907 171.821 142.907V143.365H171.744ZM170.826 141.532C170.597 141.685 170.138 141.685 169.756 141.761C169.373 141.837 169.067 141.99 169.067 142.372C169.067 142.754 169.373 142.907 169.756 142.907C170.52 142.907 170.826 142.448 170.826 142.066V141.532Z" fill="#1E1E1E"/>
<path d="M172.355 138.477H172.967V140.31C173.197 139.928 173.579 139.776 174.115 139.776C175.185 139.776 175.721 140.616 175.721 141.609C175.721 142.602 175.185 143.442 174.115 143.442C173.732 143.442 173.197 143.289 172.967 142.907V143.366H172.355V138.477ZM173.962 140.31C173.197 140.31 172.891 140.998 172.891 141.685C172.891 142.373 173.197 143.06 174.038 143.06C174.803 143.06 175.109 142.373 175.109 141.685C175.109 140.921 174.727 140.31 173.962 140.31Z" fill="#1E1E1E"/>
<path d="M176.409 138.477H177.021V140.31C177.251 139.928 177.633 139.776 178.168 139.776C179.239 139.776 179.775 140.616 179.775 141.609C179.775 142.602 179.239 143.442 178.168 143.442C177.786 143.442 177.251 143.289 177.021 142.907V143.366H176.409V138.477ZM178.092 140.31C177.327 140.31 177.021 140.998 177.021 141.685C177.021 142.373 177.327 143.06 178.168 143.06C178.933 143.06 179.239 142.373 179.239 141.685C179.163 140.921 178.857 140.31 178.092 140.31Z" fill="#1E1E1E"/>
<path d="M180.539 138.477H181.151V143.366H180.539V138.477Z" fill="#1E1E1E"/>
<path d="M185.052 142.296C184.899 143.06 184.363 143.518 183.522 143.518C182.375 143.518 181.839 142.754 181.839 141.685C181.839 140.615 182.528 139.851 183.522 139.851C184.746 139.851 185.205 140.997 185.128 141.914H182.451C182.451 142.525 182.757 143.06 183.522 143.06C183.981 143.06 184.363 142.83 184.44 142.372H185.052V142.296ZM184.516 141.303C184.516 140.768 184.057 140.31 183.522 140.31C182.91 140.31 182.528 140.768 182.528 141.303H184.516Z" fill="#1E1E1E"/>
<path d="M308.339 48.4251C308.339 51.175 306.121 53.3902 303.367 53.3902C300.614 53.3902 298.396 51.175 298.396 48.4251C298.396 45.6752 300.614 43.46 303.367 43.46C306.197 43.5363 308.339 45.7516 308.339 48.4251Z" fill="white"/>
<path d="M308.339 48.4251C308.339 51.175 306.121 53.3902 303.367 53.3902C300.614 53.3902 298.396 51.175 298.396 48.4251C298.396 45.6752 300.614 43.46 303.367 43.46C306.197 43.5363 308.339 45.7516 308.339 48.4251Z" stroke="#1E1E1E" stroke-width="0.367"/>
<path d="M304.132 48.4248C304.132 48.8067 303.826 49.1123 303.443 49.1123C303.061 49.1123 302.755 48.8067 302.755 48.4248C302.755 48.0429 303.061 47.7373 303.443 47.7373C303.826 47.7373 304.132 48.0429 304.132 48.4248Z" fill="#1E1E1E"/>
<path d="M276.063 47.2791C275.987 46.5917 275.528 46.2861 274.84 46.2861C274.304 46.2861 273.769 46.5153 273.769 47.1264C273.769 47.7375 274.534 47.8138 275.375 47.9666C276.14 48.1194 276.981 48.4249 276.981 49.418C276.981 50.4874 275.987 50.8693 275.069 50.8693C273.998 50.8693 273.004 50.3346 273.004 49.1124H273.616C273.616 49.9527 274.304 50.2582 275.069 50.2582C275.681 50.2582 276.293 50.1054 276.293 49.3416C276.293 48.6541 275.528 48.5777 274.687 48.3486C273.845 48.1194 273.08 47.9666 273.08 47.05C273.08 46.057 273.998 45.5986 274.84 45.5986C275.834 45.5986 276.599 46.057 276.675 47.1264H276.063V47.2791Z" fill="#1E1E1E"/>
<path d="M277.593 47.2029H278.205V47.6612C278.434 47.2792 278.817 47.1265 279.352 47.1265C280.423 47.1265 280.958 47.9667 280.958 48.9597C280.958 49.9528 280.423 50.793 279.352 50.793C278.97 50.793 278.434 50.6403 278.205 50.2583V52.0916H277.593V47.2029ZM279.199 47.6612C278.434 47.6612 278.128 48.3486 278.128 49.0361C278.128 49.7236 278.434 50.4111 279.275 50.4111C280.04 50.4111 280.346 49.7236 280.346 49.0361C280.346 48.2723 279.964 47.6612 279.199 47.6612Z" fill="#1E1E1E"/>
<path d="M281.647 47.2029H282.182V47.9667C282.488 47.432 282.871 47.1265 283.482 47.1265V47.7376C282.565 47.7376 282.182 48.2723 282.182 49.1889V50.793H281.57V47.2029H281.647Z" fill="#1E1E1E"/>
<path d="M284.552 46.5922H283.94V45.8284H284.552V46.5922ZM283.94 47.2033H284.552V50.7935H283.94V47.2033Z" fill="#1E1E1E"/>
<path d="M285.47 47.2026H286.005V47.7373C286.235 47.279 286.617 47.1262 287.153 47.1262C288.071 47.1262 288.377 47.6609 288.377 48.4248V50.7928H287.765V48.3484C287.765 47.8901 287.459 47.6609 287.076 47.6609C286.388 47.6609 286.005 48.1192 286.005 48.8067V50.7928H285.394V47.2026H285.47Z" fill="#1E1E1E"/>
<path d="M289.294 45.8284H289.906V48.7311L291.512 47.2033H292.277L290.9 48.5019L292.43 50.7935H291.665L290.441 48.9602L289.906 49.4949V50.8699H289.294V45.8284Z" fill="#1E1E1E"/>
<path d="M292.889 45.8284H293.501V50.7171H292.889V45.8284Z" fill="#1E1E1E"/>
<path d="M294.342 47.2026H294.878V47.9665C295.183 47.4318 295.566 47.1262 296.178 47.1262V47.7373C295.26 47.7373 294.878 48.272 294.878 49.1887V50.7928H294.266V47.2026H294.342Z" fill="#1E1E1E"/>
<path d="M172.05 210.884C173.58 210.884 174.88 212.183 174.88 213.711C174.88 215.238 173.58 216.537 172.05 216.537C170.52 216.537 169.22 215.238 169.22 213.711C169.22 212.106 170.52 210.884 172.05 210.884Z" fill="white"/>
<path d="M174.902 214.154C175.153 212.613 174.105 211.162 172.562 210.912C171.019 210.662 169.566 211.708 169.315 213.249C169.065 214.79 170.113 216.241 171.655 216.491C173.198 216.741 174.652 215.695 174.902 214.154Z" stroke="#1E1E1E" stroke-width="0.367"/>
<path d="M172.05 212.947C172.432 212.947 172.738 213.252 172.738 213.634C172.738 214.016 172.432 214.322 172.05 214.322C171.667 214.322 171.361 214.016 171.361 213.634C171.361 213.252 171.667 212.947 172.05 212.947Z" fill="#1E1E1E"/>
<path d="M180.692 212.412C180.616 211.725 180.157 211.419 179.468 211.419C178.933 211.419 178.398 211.648 178.398 212.259C178.398 212.871 179.163 212.947 180.004 213.1C180.769 213.252 181.61 213.558 181.61 214.551C181.61 215.62 180.616 216.002 179.698 216.002C178.627 216.002 177.633 215.468 177.633 214.245H178.245C178.245 215.086 178.933 215.391 179.698 215.391C180.31 215.391 180.922 215.238 180.922 214.475C180.922 213.787 180.157 213.711 179.316 213.482C178.551 213.329 177.709 213.1 177.709 212.183C177.709 211.19 178.627 210.732 179.468 210.732C180.463 210.732 181.228 211.19 181.304 212.259H180.692V212.412Z" fill="#1E1E1E"/>
<path d="M182.222 212.336H182.834V212.794C183.064 212.412 183.446 212.26 183.981 212.26C185.052 212.26 185.588 213.1 185.588 214.093C185.588 215.086 185.052 215.926 183.981 215.926C183.599 215.926 183.064 215.773 182.834 215.391V217.225H182.222V212.336ZM183.828 212.718C183.064 212.718 182.758 213.405 182.758 214.093C182.758 214.78 183.064 215.468 183.905 215.468C184.67 215.468 184.976 214.78 184.976 214.093C184.976 213.405 184.593 212.718 183.828 212.718Z" fill="#1E1E1E"/>
<path d="M186.276 212.336H186.811V213.1C187.117 212.565 187.499 212.26 188.111 212.26V212.871C187.194 212.871 186.811 213.405 186.811 214.322V215.926H186.199V212.336H186.276Z" fill="#1E1E1E"/>
<path d="M189.946 212.26C191.094 212.26 191.705 213.1 191.705 214.093C191.705 215.162 191.094 215.926 189.946 215.926C188.799 215.926 188.187 215.086 188.187 214.093C188.263 213.023 188.875 212.26 189.946 212.26ZM189.946 215.468C190.558 215.468 191.017 215.009 191.017 214.093C191.017 213.253 190.558 212.718 189.946 212.718C189.334 212.718 188.875 213.176 188.875 214.093C188.875 214.933 189.334 215.468 189.946 215.468Z" fill="#1E1E1E"/>
<path d="M195.3 215.849H194.765V215.315C194.535 215.773 194.153 215.926 193.617 215.926C192.699 215.926 192.394 215.391 192.394 214.627V212.336H193.005V214.78C193.005 215.238 193.311 215.468 193.694 215.468C194.382 215.468 194.765 215.009 194.765 214.322V212.336H195.377V215.849H195.3Z" fill="#1E1E1E"/>
<path d="M197.059 212.336H197.748V212.87H197.059V215.086C197.059 215.391 197.136 215.391 197.518 215.391H197.824V215.926H197.365C196.753 215.926 196.524 215.773 196.524 215.162V212.87H195.912V212.336H196.524V211.266H197.136V212.336H197.059Z" fill="#1E1E1E"/>
<path d="M203.254 212.412C203.177 211.725 202.718 211.419 202.03 211.419C201.495 211.419 200.959 211.648 200.959 212.259C200.959 212.871 201.724 212.947 202.565 213.1C203.33 213.252 204.172 213.558 204.172 214.551C204.172 215.62 203.177 216.002 202.26 216.002C201.189 216.002 200.194 215.468 200.194 214.245H200.806C200.806 215.086 201.495 215.391 202.26 215.391C202.871 215.391 203.483 215.238 203.483 214.475C203.483 213.787 202.718 213.711 201.877 213.482C201.112 213.329 200.271 213.1 200.271 212.183C200.271 211.19 201.189 210.732 202.03 210.732C203.024 210.732 203.789 211.19 203.866 212.259H203.254V212.412Z" fill="#1E1E1E"/>
<path d="M206.313 212.259C207.46 212.259 208.072 213.1 208.072 214.093C208.072 215.162 207.46 215.926 206.313 215.926C205.166 215.926 204.554 215.086 204.554 214.093C204.554 213.023 205.166 212.259 206.313 212.259ZM206.313 215.468C206.925 215.468 207.384 215.009 207.384 214.093C207.384 213.252 206.925 212.718 206.313 212.718C205.701 212.718 205.242 213.176 205.242 214.093C205.166 214.933 205.701 215.468 206.313 215.468Z" fill="#1E1E1E"/>
<path d="M211.131 213.481C211.055 213.023 210.749 212.794 210.213 212.794C209.372 212.794 209.143 213.481 209.143 214.169C209.143 214.856 209.449 215.468 210.213 215.468C210.749 215.468 211.131 215.162 211.208 214.627H211.82C211.667 215.468 211.131 216.002 210.213 216.002C209.143 216.002 208.531 215.238 208.531 214.169C208.531 213.1 209.066 212.259 210.213 212.259C211.055 212.259 211.667 212.641 211.743 213.481H211.131Z" fill="#1E1E1E"/>
<path d="M213.043 211.649H212.431V210.961H213.043V211.649ZM212.431 212.336H213.043V215.927H212.431V212.336Z" fill="#1E1E1E"/>
<path d="M217.097 215.849C217.02 215.926 216.867 215.926 216.714 215.926C216.408 215.926 216.255 215.773 216.255 215.391C215.949 215.773 215.491 215.926 215.032 215.926C214.42 215.926 213.884 215.62 213.884 214.933C213.884 214.093 214.496 213.94 215.108 213.863C215.72 213.711 216.332 213.787 216.332 213.329C216.332 212.794 215.949 212.718 215.567 212.718C215.108 212.718 214.726 212.87 214.649 213.405H214.037C214.037 212.488 214.726 212.183 215.567 212.183C216.179 212.183 216.867 212.336 216.867 213.176V215.009C216.867 215.315 216.867 215.391 217.02 215.391C217.097 215.391 217.097 215.391 217.173 215.391V215.849H217.097ZM216.179 214.016C215.949 214.169 215.49 214.169 215.108 214.245C214.726 214.322 214.42 214.474 214.42 214.856C214.42 215.238 214.726 215.391 215.108 215.391C215.873 215.391 216.179 214.933 216.179 214.551V214.016Z" fill="#1E1E1E"/>
<path d="M217.708 210.961H218.32V215.85H217.708V210.961Z" fill="#1E1E1E"/>
</g>
<defs>
<clipPath id="clip0">
<rect width="314.257" height="346" fill="white" transform="translate(8)"/>
</clipPath>
</defs>
</svg>
