<svg width="40" height="40" viewBox="0 0 40 40" fill="none" xmlns="http://www.w3.org/2000/svg">
<path d="M28.218 21.1765H30.7235C31.248 23.2039 33.0952 24.7059 35.2872 24.7059C37.8858 24.7059 40 22.5948 40 20C40 17.4052 37.8858 15.2941 35.2872 15.2941C33.0953 15.2941 31.248 16.7961 30.7235 18.8235H28.218V5.88235H30.7235C31.248 7.9098 33.0952 9.41177 35.2872 9.41177C37.8858 9.41177 40 7.30071 40 4.70588C40 2.11106 37.8858 0 35.2872 0C33.0953 0 31.248 1.50196 30.7235 3.52941H25.8616V18.8235H23.4447C23.2458 16.8333 22.5499 14.987 21.4803 13.4125L12.1498 21.1765H0C0.593027 27.1132 5.62425 31.7647 11.7232 31.7647C17.8222 31.7647 22.8534 27.1132 23.4465 21.1765H25.8616V36.4706H30.7235C31.248 38.498 33.0952 40 35.2872 40C37.8858 40 40 37.8889 40 35.2941C40 32.6993 37.8858 30.5882 35.2872 30.5882C33.0953 30.5882 31.248 32.0902 30.7235 34.1176H28.218V21.1765Z" fill="black"/>
<path d="M10.545 8.29395C4.98716 8.84751 0.554382 13.2737 0 18.8235H10.545V8.29395Z" fill="black"/>
<path d="M12.9014 8.29395V17.4882L19.9699 11.6065C18.1067 9.78092 15.6409 8.56681 12.9014 8.29395V8.29395Z" fill="black"/>
</svg>
