<svg width="40" height="40" viewBox="0 0 40 40" fill="none" xmlns="http://www.w3.org/2000/svg">
<path d="M20.1789 12.7605C16.1864 12.7605 12.9385 16.0084 12.9385 20.0006C12.9385 23.9931 16.1864 27.241 20.1789 27.241C24.171 27.241 27.419 23.9931 27.419 20.0006C27.419 16.0084 24.171 12.7605 20.1789 12.7605ZM24.4775 18.6371L19.2906 23.824C19.0728 24.0418 18.7873 24.1508 18.502 24.1508C18.2167 24.1508 17.9314 24.042 17.7137 23.824L15.7315 21.8419C15.2961 21.4067 15.2961 20.7008 15.7315 20.2653C16.1667 19.8298 16.8727 19.8298 17.3081 20.2653L18.502 21.4592L22.9009 17.0606C23.3361 16.6251 24.042 16.6251 24.4775 17.0606C24.9129 17.4957 24.9129 18.2017 24.4775 18.6371Z" fill="black"/>
<path d="M36.3213 11.3104L36.3202 11.2808C36.3036 10.9158 36.2926 10.5296 36.2859 10.1C36.2549 8.00474 34.5894 6.27162 32.4938 6.1545C28.1248 5.91068 24.745 4.48603 21.8571 1.67123L21.8325 1.64775C20.8905 0.784085 19.4696 0.784085 18.5274 1.64775L18.5028 1.67123C15.6149 4.48603 12.2351 5.91068 7.86602 6.15479C5.7708 6.27162 4.10494 8.00474 4.07392 10.1003C4.06754 10.527 4.05623 10.9132 4.03971 11.2808L4.03797 11.3495C3.95302 15.8047 3.84749 21.3493 5.70238 26.382C6.7223 29.1495 8.26698 31.5552 10.2932 33.5328C12.6009 35.7848 15.6236 37.5727 19.2771 38.8466C19.396 38.8881 19.5195 38.9217 19.6453 38.9469C19.8228 38.9823 20.0013 39 20.1799 39C20.3585 39 20.5374 38.9823 20.7145 38.9469C20.8404 38.9217 20.9647 38.8878 21.0842 38.8461C24.7334 37.5698 27.7528 35.7811 30.0585 33.5293C32.0839 31.5512 33.6286 29.1449 34.6494 26.3767C36.5112 21.329 36.406 15.7739 36.3213 11.3104ZM20.1794 29.4707C14.9574 29.4707 10.7092 25.2226 10.7092 20.0006C10.7092 14.7786 14.9574 10.5305 20.1794 10.5305C25.401 10.5305 29.6495 14.7786 29.6495 20.0006C29.6495 25.2226 25.401 29.4707 20.1794 29.4707Z" fill="black"/>
</svg>
