<?xml version="1.0" encoding="UTF-8"?>
<svg id="Layer_2" data-name="Layer 2" xmlns="http://www.w3.org/2000/svg" viewBox="0 0 27.58 21.31">
  <defs>
    <style>
      .cls-1 {
        fill: #020202;
      }
    </style>
  </defs>
  <g id="Layer_1-2" data-name="Layer 1">
    <path class="cls-1" d="m26.83,18.01l-6.51-3.99c.4-1.11.63-2.3.63-3.55C20.94,4.69,16.25,0,10.47,0S0,4.69,0,10.47s4.69,10.47,10.47,10.47c3.25,0,6.15-1.48,8.07-3.8l6.41,3.93c.75.46,1.74.22,2.2-.52l.21-.34c.46-.75.22-1.74-.52-2.2ZM10.47,3.98c1.44,0,2.61,1.17,2.61,2.61s-1.17,2.61-2.61,2.61-2.61-1.17-2.61-2.61,1.17-2.61,2.61-2.61Zm5,10.91c-1.28,1.28-3.05,2.08-5.01,2.08s-3.72-.79-5-2.08v-.07c.26-2.55,2.39-4.55,5-4.55s4.77,2.02,5,4.59v.03s0,0,0,0Z"/>
  </g>
</svg>